<svg width="789" height="506" viewBox="0 0 789 506" fill="none" xmlns="http://www.w3.org/2000/svg">
<g clip-path="url(#clip0_490_5)">
<path d="M736.637 503.621C726.42 496.786 721.275 483.783 721.072 471.492C721.004 467.371 722.045 462.592 725.737 460.759C726.794 460.235 727.975 460.012 729.15 460.116C730.326 460.219 731.45 460.645 732.398 461.347C733.347 462.049 734.083 462.999 734.527 464.092C734.97 465.186 735.103 466.38 734.911 467.544C736.28 463.535 738.056 459.676 740.211 456.028C742.036 452.94 744.599 449.726 748.174 449.432C752.322 449.092 755.787 453.12 756.375 457.24C756.963 461.36 755.464 465.46 753.99 469.352C754.406 467.59 755.258 465.96 756.467 464.611C757.676 463.262 759.204 462.239 760.911 461.633C762.618 461.028 764.45 460.861 766.238 461.146C768.027 461.432 769.715 462.161 771.149 463.268C775.205 466.399 776.542 472.162 775.521 477.184C774.501 482.205 771.504 486.599 768.19 490.507C764.304 495.09 759.804 499.278 754.417 501.938C749.03 504.599 742.659 505.616 736.928 503.812L736.637 503.621Z" fill="#F2F2F2"/>
<path d="M596.895 339.023C598.301 338.323 599.536 337.324 600.514 336.095C601.492 334.866 602.189 333.438 602.555 331.911C602.922 330.383 602.949 328.794 602.634 327.256C602.32 325.717 601.672 324.266 600.736 323.005L625.769 201.465L602.409 201.157L585.025 321.155C583.011 322.867 581.694 325.259 581.325 327.878C580.956 330.496 581.561 333.159 583.024 335.361C584.487 337.564 586.707 339.153 589.263 339.828C591.82 340.503 594.535 340.216 596.895 339.023Z" fill="#FFB8B8"/>
<path d="M710.679 332.712C711.827 331.639 712.725 330.329 713.311 328.871C713.897 327.414 714.156 325.846 714.07 324.278C713.985 322.71 713.557 321.18 712.816 319.795C712.075 318.41 711.039 317.205 709.782 316.264L699.03 192.639L676.556 199.021L694.197 318.982C692.756 321.199 692.178 323.867 692.573 326.482C692.968 329.096 694.308 331.475 696.34 333.168C698.372 334.86 700.953 335.748 703.596 335.664C706.239 335.58 708.759 334.53 710.679 332.712Z" fill="#FFB8B8"/>
<path d="M638.591 492.157L626.331 492.156L620.499 444.868L638.593 444.869L638.591 492.157Z" fill="#FFB8B8"/>
<path d="M617.574 488.653H641.218V503.54H602.688C602.688 499.592 604.256 495.805 607.048 493.014C609.84 490.222 613.626 488.653 617.574 488.653Z" fill="#2F2E41"/>
<path d="M693.591 492.157L681.331 492.156L675.499 444.868L693.593 444.869L693.591 492.157Z" fill="#FFB8B8"/>
<path d="M672.574 488.653H696.218V503.54H657.687C657.687 499.592 659.256 495.805 662.048 493.014C664.839 490.222 668.626 488.653 672.574 488.653Z" fill="#2F2E41"/>
<path d="M641.768 154.293C655.332 154.293 666.329 143.297 666.329 129.732C666.329 116.167 655.332 105.171 641.768 105.171C628.203 105.171 617.207 116.167 617.207 129.732C617.207 143.297 628.203 154.293 641.768 154.293Z" fill="#FFB8B8"/>
<path d="M676.296 462.319C675.297 462.315 674.329 461.965 673.558 461.329C672.787 460.693 672.26 459.81 672.065 458.829L655.461 372.923C655.309 372.136 654.88 371.43 654.252 370.933C653.624 370.435 652.838 370.18 652.038 370.212C651.237 370.244 650.475 370.562 649.889 371.108C649.303 371.655 648.932 372.393 648.843 373.189L639.546 456.867C639.436 457.888 638.964 458.836 638.214 459.538C637.464 460.24 636.487 460.65 635.461 460.692L621.516 461.326C620.949 461.356 620.382 461.271 619.849 461.078C619.315 460.884 618.826 460.585 618.41 460.199C617.991 459.816 617.652 459.355 617.413 458.84C617.174 458.326 617.04 457.769 617.018 457.202L611.671 327.943C611.642 327.291 611.763 326.64 612.024 326.042C612.285 325.443 612.68 324.912 613.179 324.489L616.271 321.851C617.05 321.187 618.041 320.821 619.066 320.821H691.344C692.486 320.822 693.581 321.277 694.388 322.084C695.195 322.891 695.65 323.986 695.651 325.128V457.357C695.653 458.468 695.225 459.536 694.457 460.338C693.689 461.14 692.641 461.614 691.531 461.66L676.48 462.315C676.419 462.317 676.357 462.319 676.296 462.319Z" fill="#2F2E41"/>
<path d="M639.279 339.628C627.593 339.628 617.293 336.514 612.093 327.433C611.658 326.685 611.454 325.825 611.507 324.961L618.04 225.085C618.093 224.277 617.852 223.478 617.361 222.834L599.028 198.796C598.684 198.345 598.433 197.831 598.288 197.284C598.143 196.736 598.108 196.165 598.185 195.603C598.261 195.042 598.448 194.501 598.734 194.012C599.02 193.523 599.399 193.095 599.851 192.753L627.353 171.917C627.93 171.478 628.351 170.865 628.551 170.168L629.352 167.364C629.6 166.491 630.119 165.718 630.833 165.158C631.547 164.597 632.42 164.277 633.328 164.243L653.508 163.467C654.181 163.444 654.85 163.578 655.462 163.858C656.075 164.138 656.614 164.557 657.037 165.081L659.184 167.765C659.458 168.108 659.796 168.393 660.18 168.605L693.93 187.256C694.596 187.625 695.153 188.164 695.543 188.818C695.934 189.472 696.144 190.217 696.153 190.979L696.154 191.039L696.14 191.096C688.273 223.899 688.715 265.36 697.532 321.581C697.556 322.438 697.323 323.283 696.863 324.007C696.403 324.731 695.738 325.301 694.952 325.644C687.647 328.808 661.06 339.628 639.279 339.628Z" fill="#3066BE"/>
<path d="M618.727 236.604H595.869C595.283 236.605 594.702 236.486 594.164 236.254C593.625 236.023 593.139 235.683 592.737 235.257C592.334 234.831 592.023 234.327 591.822 233.776C591.621 233.225 591.535 232.639 591.569 232.054C591.909 226.23 592.58 215.156 593.252 206.422C594.219 193.854 606.534 187.668 606.658 187.606L606.899 187.488L615.213 192.766L622.95 231.454C623.075 232.078 623.06 232.723 622.905 233.341C622.751 233.959 622.461 234.535 622.057 235.028C621.653 235.521 621.145 235.918 620.569 236.19C619.993 236.463 619.364 236.604 618.727 236.604Z" fill="#3066BE"/>
<path d="M681.363 234.471C680.76 234.467 680.165 234.337 679.615 234.088C679.065 233.84 678.574 233.479 678.172 233.029C677.771 232.579 677.468 232.05 677.284 231.475C677.1 230.901 677.038 230.295 677.103 229.695L681.321 190.885L689.471 184.916L689.657 184.936C689.744 184.946 698.426 186.03 702.316 195.754C705.085 202.678 709.316 215.475 711.591 222.487C711.774 223.051 711.838 223.646 711.78 224.236C711.721 224.825 711.542 225.396 711.253 225.913C710.964 226.43 710.571 226.882 710.099 227.24C709.627 227.598 709.086 227.855 708.51 227.994L682.402 234.344C682.062 234.428 681.713 234.471 681.363 234.471Z" fill="#3066BE"/>
<path d="M642.327 154.465C647.58 146.154 641.022 123.276 626.731 122.679C623.432 122.541 622.165 117.74 621.044 114.634C620.473 112.834 620.321 110.926 620.6 109.058C620.879 107.19 621.582 105.41 622.654 103.855C624.836 100.756 627.841 98.3287 631.33 96.8466C635.254 95.0439 639.519 94.1064 643.838 94.0977C648.156 94.089 652.426 95.0094 656.357 96.7964C660.288 98.5833 663.789 101.195 666.622 104.454C669.454 107.714 671.553 111.544 672.775 115.686C673.997 119.828 674.313 124.184 673.703 128.459C673.093 132.734 671.57 136.827 669.238 140.462C666.906 144.097 663.82 147.187 660.188 149.523C656.557 151.86 652.465 153.388 648.191 154.004L642.327 154.465Z" fill="#2F2E41"/>
<path d="M494 0H7C5.14412 0.00205925 3.36483 0.740227 2.05252 2.05254C0.740212 3.36484 0.00205925 5.14412 0 7V337C0.00206189 338.856 0.740213 340.635 2.05252 341.948C3.36483 343.26 5.14412 343.998 7 344H494C495.856 343.998 497.635 343.26 498.948 341.948C500.26 340.635 500.998 338.856 501 337V7C500.998 5.14412 500.26 3.36484 498.948 2.05254C497.635 0.740227 495.856 0.00205925 494 0ZM499 337C498.999 338.326 498.473 339.597 497.535 340.535C496.597 341.473 495.326 341.999 494 342H7C5.67408 341.999 4.40261 341.473 3.46504 340.535C2.52748 339.597 2.00053 338.326 2 337V7C2.00053 5.67408 2.52748 4.40262 3.46504 3.46506C4.40261 2.52749 5.67408 2.00053 7 2H494C495.326 2.00053 496.597 2.52749 497.535 3.46506C498.473 4.40262 498.999 5.67408 499 7V337Z" fill="#FFF8EB"/>
<path d="M500 28.04H1V30.04H500V28.04Z" fill="#FFF8EB"/>
<path d="M18 21C21.3137 21 24 18.3137 24 15C24 11.6863 21.3137 9 18 9C14.6863 9 12 11.6863 12 15C12 18.3137 14.6863 21 18 21Z" fill="#FFF8EB"/>
<path d="M35.25 21C38.5637 21 41.25 18.3137 41.25 15C41.25 11.6863 38.5637 9 35.25 9C31.9363 9 29.25 11.6863 29.25 15C29.25 18.3137 31.9363 21 35.25 21Z" fill="#FFF8EB"/>
<path d="M52.5 21C55.8137 21 58.5 18.3137 58.5 15C58.5 11.6863 55.8137 9 52.5 9C49.1863 9 46.5 11.6863 46.5 15C46.5 18.3137 49.1863 21 52.5 21Z" fill="#FFF8EB"/>
<path d="M403.827 96.4646H93.8267C89.7158 96.4646 85.7733 94.8316 82.8665 91.9248C79.9597 89.018 78.3267 85.0755 78.3267 80.9646C78.3267 76.8537 79.9597 72.9113 82.8665 70.0045C85.7733 67.0976 89.7158 65.4646 93.8267 65.4646H403.827C407.938 65.4646 411.88 67.0976 414.787 70.0045C417.694 72.9113 419.327 76.8537 419.327 80.9646C419.327 85.0755 417.694 89.018 414.787 91.9248C411.88 94.8316 407.938 96.4646 403.827 96.4646ZM93.8267 67.4646C90.2462 67.4646 86.8125 68.8869 84.2807 71.4187C81.749 73.9504 80.3267 77.3842 80.3267 80.9646C80.3267 84.545 81.749 87.9788 84.2807 90.5106C86.8125 93.0423 90.2462 94.4646 93.8267 94.4646H403.827C407.407 94.4646 410.841 93.0423 413.373 90.5106C415.904 87.9788 417.327 84.545 417.327 80.9646C417.327 77.3842 415.904 73.9504 413.373 71.4187C410.841 68.8869 407.407 67.4646 403.827 67.4646H93.8267Z" fill="#FFF8EB"/>
<path d="M173.827 175.465H113.827C109.716 175.465 105.773 173.832 102.867 170.925C99.9597 168.018 98.3267 164.075 98.3267 159.965C98.3267 155.854 99.9597 151.911 102.867 149.004C105.773 146.098 109.716 144.465 113.827 144.465H173.827C177.938 144.465 181.88 146.098 184.787 149.004C187.694 151.911 189.327 155.854 189.327 159.965C189.327 164.075 187.694 168.018 184.787 170.925C181.88 173.832 177.938 175.465 173.827 175.465ZM113.827 146.465C110.246 146.465 106.812 147.887 104.281 150.419C101.749 152.95 100.327 156.384 100.327 159.965C100.327 163.545 101.749 166.979 104.281 169.511C106.812 172.042 110.246 173.465 113.827 173.465H173.827C177.407 173.465 180.841 172.042 183.373 169.511C185.904 166.979 187.327 163.545 187.327 159.965C187.327 156.384 185.904 152.95 183.373 150.419C180.841 147.887 177.407 146.465 173.827 146.465H113.827Z" fill="#FFF8EB"/>
<path d="M173.827 227.465H113.827C109.716 227.465 105.773 225.832 102.867 222.925C99.9597 220.018 98.3267 216.075 98.3267 211.965C98.3267 207.854 99.9597 203.911 102.867 201.004C105.773 198.098 109.716 196.465 113.827 196.465H173.827C177.938 196.465 181.88 198.098 184.787 201.004C187.694 203.911 189.327 207.854 189.327 211.965C189.327 216.075 187.694 220.018 184.787 222.925C181.88 225.832 177.938 227.465 173.827 227.465ZM113.827 198.465C110.246 198.465 106.812 199.887 104.281 202.419C101.749 204.95 100.327 208.384 100.327 211.965C100.327 215.545 101.749 218.979 104.281 221.511C106.812 224.042 110.246 225.465 113.827 225.465H173.827C177.407 225.465 180.841 224.042 183.373 221.511C185.904 218.979 187.327 215.545 187.327 211.965C187.327 208.384 185.904 204.95 183.373 202.419C180.841 199.887 177.407 198.465 173.827 198.465H113.827Z" fill="#FFF8EB"/>
<path d="M173.827 279.465H113.827C109.716 279.465 105.773 277.832 102.867 274.925C99.9597 272.018 98.3267 268.075 98.3267 263.965C98.3267 259.854 99.9597 255.911 102.867 253.004C105.773 250.098 109.716 248.465 113.827 248.465H173.827C177.938 248.465 181.88 250.098 184.787 253.004C187.694 255.911 189.327 259.854 189.327 263.965C189.327 268.075 187.694 272.018 184.787 274.925C181.88 277.832 177.938 279.465 173.827 279.465ZM113.827 250.465C110.246 250.465 106.812 251.887 104.281 254.419C101.749 256.95 100.327 260.384 100.327 263.965C100.327 267.545 101.749 270.979 104.281 273.511C106.812 276.042 110.246 277.465 113.827 277.465H173.827C177.407 277.465 180.841 276.042 183.373 273.511C185.904 270.979 187.327 267.545 187.327 263.965C187.327 260.384 185.904 256.95 183.373 254.419C180.841 251.887 177.407 250.465 173.827 250.465H113.827Z" fill="#FFF8EB"/>
<path d="M182.827 87.9646H98.8267C96.9701 87.9646 95.1897 87.2271 93.8769 85.9144C92.5642 84.6016 91.8267 82.8211 91.8267 80.9646C91.8267 79.1081 92.5642 77.3276 93.8769 76.0149C95.1897 74.7021 96.9701 73.9646 98.8267 73.9646H182.827C184.683 73.9646 186.464 74.7021 187.776 76.0149C189.089 77.3276 189.827 79.1081 189.827 80.9646C189.827 82.8211 189.089 84.6016 187.776 85.9144C186.464 87.2271 184.683 87.9646 182.827 87.9646Z" fill="#3066BE"/>
<path d="M393.327 84.4646C391.942 84.4646 390.589 84.0541 389.438 83.2849C388.287 82.5157 387.389 81.4225 386.859 80.1434C386.33 78.8643 386.191 77.4568 386.461 76.099C386.731 74.7411 387.398 73.4938 388.377 72.5148C389.356 71.5359 390.603 70.8692 391.961 70.5991C393.319 70.329 394.726 70.4676 396.005 70.9975C397.285 71.5273 398.378 72.4245 399.147 73.5756C399.916 74.7267 400.327 76.0801 400.327 77.4646C400.325 79.3205 399.586 81.0997 398.274 82.412C396.962 83.7243 395.183 84.4625 393.327 84.4646ZM393.327 72.4646C392.338 72.4646 391.371 72.7578 390.549 73.3072C389.727 73.8566 389.086 74.6375 388.707 75.5512C388.329 76.4648 388.23 77.4701 388.423 78.44C388.616 79.41 389.092 80.3009 389.791 81.0001C390.49 81.6994 391.381 82.1756 392.351 82.3685C393.321 82.5614 394.326 82.4624 395.24 82.084C396.154 81.7056 396.935 81.0647 397.484 80.2424C398.033 79.4202 398.327 78.4535 398.327 77.4646C398.325 76.139 397.798 74.8681 396.861 73.9307C395.923 72.9934 394.652 72.4661 393.327 72.4646Z" fill="#FFF8EB"/>
<path d="M404.155 90.797C404.024 90.7972 403.894 90.7714 403.773 90.7211C403.651 90.6708 403.541 90.597 403.448 90.504L396.422 83.4777C396.329 83.3848 396.256 83.2746 396.206 83.1533C396.155 83.032 396.129 82.902 396.129 82.7707C396.129 82.6394 396.155 82.5093 396.206 82.388C396.256 82.2667 396.329 82.1564 396.422 82.0636C396.515 81.9707 396.625 81.8971 396.747 81.8469C396.868 81.7966 396.998 81.7708 397.129 81.7708C397.261 81.7708 397.391 81.7966 397.512 81.8469C397.633 81.8971 397.744 81.9708 397.836 82.0636L404.862 89.09C405.002 89.2298 405.097 89.408 405.136 89.602C405.175 89.7959 405.155 89.9969 405.079 90.1796C405.003 90.3623 404.875 90.5185 404.711 90.6284C404.547 90.7383 404.353 90.797 404.155 90.797Z" fill="#FFF8EB"/>
<path d="M389.327 169.465H355.327C352.807 169.465 350.391 168.464 348.609 166.682C346.828 164.901 345.827 162.484 345.827 159.965C345.827 157.445 346.828 155.029 348.609 153.247C350.391 151.466 352.807 150.465 355.327 150.465H389.327C391.846 150.465 394.263 151.466 396.044 153.247C397.826 155.029 398.827 157.445 398.827 159.965C398.827 162.484 397.826 164.901 396.044 166.682C394.263 168.464 391.846 169.465 389.327 169.465Z" fill="#3066BE"/>
<path d="M389.327 221.465H355.327C352.807 221.465 350.391 220.464 348.609 218.682C346.828 216.901 345.827 214.484 345.827 211.965C345.827 209.445 346.828 207.029 348.609 205.247C350.391 203.466 352.807 202.465 355.327 202.465H389.327C391.846 202.465 394.263 203.466 396.044 205.247C397.826 207.029 398.827 209.445 398.827 211.965C398.827 214.484 397.826 216.901 396.044 218.682C394.263 220.464 391.846 221.465 389.327 221.465Z" fill="#3066BE"/>
<path d="M389.327 273.465H355.327C352.807 273.465 350.391 272.464 348.609 270.682C346.828 268.901 345.827 266.484 345.827 263.965C345.827 261.445 346.828 259.029 348.609 257.247C350.391 255.466 352.807 254.465 355.327 254.465H389.327C391.846 254.465 394.263 255.466 396.044 257.247C397.826 259.029 398.827 261.445 398.827 263.965C398.827 266.484 397.826 268.901 396.044 270.682C394.263 272.464 391.846 273.465 389.327 273.465Z" fill="#3066BE"/>
<path d="M787.606 505.465H539.606C539.341 505.465 539.087 505.359 538.899 505.172C538.712 504.984 538.606 504.73 538.606 504.465C538.606 504.199 538.712 503.945 538.899 503.757C539.087 503.57 539.341 503.465 539.606 503.465H787.606C787.872 503.465 788.126 503.57 788.314 503.757C788.501 503.945 788.606 504.199 788.606 504.465C788.606 504.73 788.501 504.984 788.314 505.172C788.126 505.359 787.872 505.465 787.606 505.465Z" fill="#FFF8EB"/>
</g>
<defs>
<clipPath id="clip0_490_5">
<rect width="788.606" height="505.465" fill="white"/>
</clipPath>
</defs>
</svg>
