<svg width="69" height="52" viewBox="0 0 69 52" fill="none" xmlns="http://www.w3.org/2000/svg">
<path d="M28.6085 45.3535L29.7379 43.4456L27.0485 41.8538L25.9192 43.7619L28.6085 45.3535ZM20.2621 43.4456L21.3914 45.3535L24.0806 43.7619L22.9512 41.8538L20.2621 43.4456ZM25.9192 43.7619C25.5177 44.4402 24.4823 44.4402 24.0806 43.7619L21.3914 45.3535C23.0031 48.0765 26.9969 48.0765 28.6085 45.3535L25.9192 43.7619ZM21.875 5.72917H28.125V2.60417H21.875V5.72917ZM44.2708 21.875V23.9583H47.3958V21.875H44.2708ZM5.72916 23.9583V21.875H2.60416V23.9583H5.72916ZM2.60416 23.9583C2.60416 26.3638 2.6033 28.246 2.70689 29.7642C2.81145 31.2965 3.02755 32.5717 3.51601 33.7508L6.40314 32.555C6.09868 31.82 5.91834 30.9246 5.82466 29.5515C5.73001 28.1644 5.72916 26.4065 5.72916 23.9583H2.60416ZM16.2552 38.0033C13.6397 37.9581 12.2692 37.7919 11.195 37.3469L9.99909 40.234C11.6761 40.9285 13.5862 41.0827 16.2014 41.1277L16.2552 38.0033ZM3.51601 33.7508C4.73182 36.686 7.06387 39.0181 9.99909 40.234L11.195 37.3469C9.02545 36.4481 7.30178 34.7246 6.40314 32.555L3.51601 33.7508ZM44.2708 23.9583C44.2708 26.4065 44.27 28.1644 44.1754 29.5515C44.0817 30.9246 43.9012 31.82 43.5969 32.555L46.4839 33.7508C46.9725 32.5717 47.1885 31.2965 47.2931 29.7642C47.3967 28.246 47.3958 26.3638 47.3958 23.9583H44.2708ZM33.7985 41.1277C36.4137 41.0827 38.3239 40.9285 40.0008 40.234L38.805 37.3469C37.7308 37.7919 36.3602 37.9581 33.7448 38.0033L33.7985 41.1277ZM43.5969 32.555C42.6981 34.7246 40.9746 36.4481 38.805 37.3469L40.0008 40.234C42.936 39.0181 45.2681 36.686 46.4839 33.7508L43.5969 32.555ZM28.125 5.72917C31.565 5.72917 34.0354 5.73082 35.9623 5.91403C37.866 6.09503 39.0773 6.44215 40.0429 7.03392L41.6758 4.36942C40.1364 3.42619 38.3904 3.00582 36.2581 2.80307C34.1489 2.60253 31.5046 2.60417 28.125 2.60417V5.72917ZM47.3958 21.875C47.3958 18.4954 47.3975 15.851 47.1969 13.7419C46.9942 11.6095 46.5737 9.86344 45.6306 8.32423L42.966 9.95705C43.5579 10.9227 43.905 12.134 44.086 14.0377C44.2692 15.9646 44.2708 18.4349 44.2708 21.875H47.3958ZM40.0429 7.03392C41.2344 7.76401 42.236 8.76567 42.966 9.95705L45.6306 8.32423C44.6429 6.71238 43.2877 5.35717 41.6758 4.36942L40.0429 7.03392ZM21.875 2.60417C18.4954 2.60417 15.851 2.60253 13.7419 2.80307C11.6095 3.00582 9.86343 3.42619 8.32422 4.36942L9.95703 7.03392C10.9227 6.44215 12.134 6.09503 14.0377 5.91403C15.9646 5.73082 18.4349 5.72917 21.875 5.72917V2.60417ZM5.72916 21.875C5.72916 18.4349 5.7308 15.9646 5.91401 14.0377C6.09501 12.134 6.44214 10.9227 7.03391 9.95705L4.36941 8.32423C3.42618 9.86344 3.0058 11.6095 2.80305 13.7419C2.60251 15.851 2.60416 18.4954 2.60416 21.875H5.72916ZM8.32422 4.36942C6.71237 5.35717 5.35716 6.71238 4.36941 8.32423L7.03391 9.95705C7.76399 8.76567 8.76566 7.76401 9.95703 7.03392L8.32422 4.36942ZM22.9512 41.8538C22.5283 41.1392 22.1571 40.5085 21.796 40.0131C21.4156 39.4915 20.9796 39.0217 20.3747 38.6698L18.8036 41.3713C18.9023 41.4285 19.0369 41.5333 19.2705 41.8538C19.5234 42.2008 19.8091 42.6802 20.2621 43.4456L22.9512 41.8538ZM16.2014 41.1277C17.1161 41.1435 17.6956 41.1552 18.1372 41.204C18.55 41.2498 18.7099 41.3167 18.8036 41.3713L20.3747 38.6698C19.7648 38.315 19.1301 38.1698 18.4812 38.0979C17.8612 38.0294 17.112 38.0181 16.2552 38.0033L16.2014 41.1277ZM29.7379 43.4456C30.1908 42.6802 30.4764 42.2008 30.7294 41.8538C30.9629 41.5333 31.0975 41.4285 31.1962 41.3713L29.6252 38.6698C29.0204 39.0217 28.5842 39.4915 28.2039 40.0131C27.8429 40.5085 27.4717 41.1392 27.0485 41.8538L29.7379 43.4456ZM33.7448 38.0033C32.8879 38.0181 32.1387 38.0294 31.5187 38.0979C30.8698 38.1698 30.2352 38.315 29.6252 38.6698L31.1962 41.3713C31.29 41.3167 31.45 41.2498 31.8627 41.204C32.3044 41.1552 32.8837 41.1435 33.7985 41.1277L33.7448 38.0033Z" fill="#FFF8EB"/>
<path d="M16.6667 18.75H33.3333" stroke="#FFF8EB" stroke-width="2" stroke-linecap="round"/>
<path d="M16.6667 26.0417H28.125" stroke="#FFF8EB" stroke-width="2" stroke-linecap="round"/>
<path d="M51.8868 48.2828L52.7903 46.7565L50.6388 45.483L49.7353 47.0095L51.8868 48.2828ZM45.2097 46.7565L46.1132 48.2828L48.2645 47.0095L47.361 45.483L45.2097 46.7565ZM49.7353 47.0095C49.4142 47.5522 48.5858 47.5522 48.2645 47.0095L46.1132 48.2828C47.4025 50.4612 50.5975 50.4612 51.8868 48.2828L49.7353 47.0095ZM46.5 16.5833H51.5V14.0833H46.5V16.5833ZM64.4167 29.5V31.1667H66.9167V29.5H64.4167ZM33.5833 31.1667V29.5H31.0833V31.1667H33.5833ZM31.0833 31.1667C31.0833 33.091 31.0827 34.5968 31.1655 35.8113C31.2492 37.0372 31.4221 38.0573 31.8128 39.0007L34.1225 38.044C33.879 37.456 33.7347 36.7397 33.6597 35.6412C33.584 34.5315 33.5833 33.1252 33.5833 31.1667H31.0833ZM42.0042 42.4027C39.9118 42.3665 38.8154 42.2335 37.956 41.8775L36.9993 44.1872C38.3409 44.7428 39.869 44.8662 41.9611 44.9022L42.0042 42.4027ZM31.8128 39.0007C32.7855 41.3488 34.6511 43.2145 36.9993 44.1872L37.956 41.8775C36.2204 41.1585 34.8414 39.7797 34.1225 38.044L31.8128 39.0007ZM64.4167 31.1667C64.4167 33.1252 64.416 34.5315 64.3403 35.6412C64.2653 36.7397 64.121 37.456 63.8775 38.044L66.1872 39.0007C66.578 38.0573 66.7508 37.0372 66.8345 35.8113C66.9173 34.5968 66.9167 33.091 66.9167 31.1667H64.4167ZM56.0388 44.9022C58.131 44.8662 59.6592 44.7428 61.0007 44.1872L60.044 41.8775C59.1847 42.2335 58.0882 42.3665 55.9958 42.4027L56.0388 44.9022ZM63.8775 38.044C63.1585 39.7797 61.7797 41.1585 60.044 41.8775L61.0007 44.1872C63.3488 43.2145 65.2145 41.3488 66.1872 39.0007L63.8775 38.044ZM51.5 16.5833C54.252 16.5833 56.2283 16.5847 57.7698 16.7312C59.2928 16.876 60.2618 17.1537 61.0343 17.6271L62.3407 15.4955C61.1092 14.741 59.7123 14.4047 58.0065 14.2425C56.3192 14.082 54.2037 14.0833 51.5 14.0833V16.5833ZM66.9167 29.5C66.9167 26.7964 66.918 24.6808 66.7575 22.9935C66.5953 21.2876 66.259 19.8908 65.5045 18.6594L63.3728 19.9656C63.8463 20.7382 64.124 21.7072 64.2688 23.2302C64.4153 24.7717 64.4167 26.7479 64.4167 29.5H66.9167ZM61.0343 17.6271C61.9875 18.2112 62.7888 19.0125 63.3728 19.9656L65.5045 18.6594C64.7143 17.3699 63.6302 16.2857 62.3407 15.4955L61.0343 17.6271ZM46.5 14.0833C43.7964 14.0833 41.6808 14.082 39.9935 14.2425C38.2876 14.4047 36.8908 14.741 35.6594 15.4955L36.9656 17.6271C37.7382 17.1537 38.7072 16.876 40.2302 16.7312C41.7717 16.5847 43.7479 16.5833 46.5 16.5833V14.0833ZM33.5833 29.5C33.5833 26.7479 33.5847 24.7717 33.7312 23.2302C33.876 21.7072 34.1537 20.7382 34.6271 19.9656L32.4955 18.6594C31.741 19.8908 31.4047 21.2876 31.2425 22.9935C31.082 24.6808 31.0833 26.7964 31.0833 29.5H33.5833ZM35.6594 15.4955C34.3699 16.2857 33.2857 17.3699 32.4955 18.6594L34.6271 19.9656C35.2112 19.0125 36.0125 18.2112 36.9656 17.6271L35.6594 15.4955ZM47.361 45.483C47.3517 45.4672 47.3424 45.4515 47.3331 45.4358C47.0063 44.8836 46.7177 44.3959 46.4368 44.0105C46.1325 43.5932 45.7837 43.2173 45.2998 42.9358L44.0429 45.097C44.1219 45.1428 44.2295 45.2267 44.4164 45.483C44.6187 45.7607 44.8473 46.1442 45.2097 46.7565L47.361 45.483ZM41.9611 44.9022C42.6929 44.9148 43.1565 44.9242 43.5098 44.9632C43.84 44.9998 43.968 45.0533 44.0429 45.097L45.2998 42.9358C44.8118 42.652 44.3041 42.5358 43.785 42.4783C43.3027 42.425 42.7226 42.415 42.0607 42.4036C42.0419 42.4033 42.0231 42.403 42.0042 42.4027L41.9611 44.9022ZM52.7903 46.7565C53.1527 46.1442 53.3812 45.7607 53.5835 45.483C53.7703 45.2267 53.878 45.1428 53.957 45.097L52.7002 42.9358C52.2163 43.2173 51.8673 43.5932 51.5632 44.0105C51.283 44.3949 50.9952 44.8811 50.6693 45.4316C50.6592 45.4487 50.649 45.4658 50.6388 45.483L52.7903 46.7565ZM55.9958 42.4027C55.977 42.403 55.9582 42.4033 55.9394 42.4036C55.2774 42.415 54.6974 42.425 54.215 42.4783C53.6958 42.5358 53.1882 42.652 52.7002 42.9358L53.957 45.097C54.032 45.0533 54.16 44.9998 54.4902 44.9632C54.8435 44.9242 55.307 44.9148 56.0388 44.9022L55.9958 42.4027Z" fill="#FFF8EB"/>
<path d="M49.7353 47.0095L50.6388 45.483L50.6693 45.4316C50.9952 44.8811 51.283 44.3949 51.5632 44.0105C51.8673 43.5932 52.2163 43.2173 52.7002 42.9358C53.1882 42.652 53.6958 42.5358 54.215 42.4783C54.6974 42.425 55.2774 42.415 55.9394 42.4036L55.9958 42.4027C58.0882 42.3665 59.1847 42.2335 60.044 41.8775C61.7797 41.1585 63.1585 39.7797 63.8775 38.044C64.121 37.456 64.2653 36.7397 64.3403 35.6412C64.416 34.5315 64.4167 33.1252 64.4167 31.1667V29.5C64.4167 26.7479 64.4153 24.7717 64.2688 23.2302C64.124 21.7072 63.8463 20.7382 63.3728 19.9656C62.7888 19.0125 61.9875 18.2112 61.0343 17.6271C60.2618 17.1537 59.2928 16.876 57.7698 16.7312C56.2283 16.5847 54.252 16.5833 51.5 16.5833H46.5C43.7479 16.5833 41.7717 16.5847 40.2302 16.7312C38.7072 16.876 37.7382 17.1537 36.9656 17.6271C36.0125 18.2112 35.2112 19.0125 34.6271 19.9656C34.1537 20.7382 33.876 21.7072 33.7312 23.2302C33.5847 24.7717 33.5833 26.7479 33.5833 29.5V31.1667C33.5833 33.1252 33.584 34.5315 33.6597 35.6412C33.7347 36.7397 33.879 37.456 34.1225 38.044C34.8414 39.7797 36.2204 41.1585 37.956 41.8775C38.8154 42.2335 39.9118 42.3665 42.0042 42.4027L42.0607 42.4036C42.7226 42.415 43.3027 42.425 43.785 42.4783C44.3041 42.5358 44.8118 42.652 45.2998 42.9358C45.7837 43.2173 46.1325 43.5932 46.4368 44.0105C46.7177 44.3959 47.0063 44.8836 47.3331 45.4358L47.361 45.483L48.2645 47.0095C48.5858 47.5522 49.4142 47.5522 49.7353 47.0095Z" fill="#FFF8EB"/>
</svg>
