<svg width="450" height="377" viewBox="0 0 450 377" fill="none" xmlns="http://www.w3.org/2000/svg">
<path d="M203 376C278.111 376 339 368.837 339 360C339 351.163 278.111 344 203 344C127.889 344 67 351.163 67 360C67 368.837 127.889 376 203 376Z" fill="#FFF8EB" fill-opacity="0.7"/>
<path d="M315.197 87.366H313.178V32.0281C313.178 23.5337 309.806 15.3873 303.803 9.38083C297.8 3.37439 289.658 9.37842e-06 281.168 0H163.991C155.501 -1.60772e-05 147.359 3.37434 141.356 9.38075C135.353 15.3872 131.98 23.5336 131.98 32.028V335.616C131.98 344.111 135.353 352.257 141.356 358.263C147.359 364.27 155.501 367.644 163.991 367.644H281.168C289.657 367.644 297.799 364.27 303.803 358.264C309.806 352.257 313.178 344.111 313.178 335.616V126.756H315.197L315.197 87.366Z" fill="#3F3D56"/>
<path d="M306.365 32.2516V335.393C306.365 341.737 303.846 347.821 299.363 352.306C294.88 356.792 288.799 359.312 282.459 359.312H164.72C158.38 359.312 152.299 356.792 147.816 352.306C143.333 347.821 140.814 341.737 140.814 335.393V32.2516C140.814 25.9078 143.333 19.8239 147.816 15.3382C152.299 10.8525 158.38 8.33238 164.72 8.33226H179.003C178.301 10.0579 178.034 11.9296 178.225 13.7828C178.416 15.636 179.059 17.4139 180.097 18.9602C181.136 20.5064 182.539 21.7735 184.182 22.6501C185.825 23.5266 187.658 23.9858 189.52 23.9872H256.649C258.511 23.9858 260.344 23.5266 261.987 22.65C263.63 21.7734 265.033 20.5063 266.072 18.9601C267.11 17.4139 267.753 15.636 267.944 13.7828C268.135 11.9296 267.868 10.0579 267.166 8.33226H282.459C288.799 8.33238 294.88 10.8525 299.363 15.3382C303.846 19.8239 306.365 25.9078 306.365 32.2516Z" fill="#FFF8EB"/>
<path d="M268.435 162.965C267.653 163.374 266.856 163.761 266.047 164.127C265.31 164.46 264.561 164.773 263.8 165.066C263.523 165.172 263.24 165.278 262.957 165.385C260.722 166.196 258.426 166.829 256.091 167.279C254.935 167.506 253.763 167.685 252.577 167.814C251.597 167.925 250.608 168.005 249.608 168.052C248.896 168.087 248.184 168.102 247.467 168.102C244.628 168.103 241.795 167.838 239.006 167.309C238.278 167.178 237.567 167.021 236.855 166.849C233.411 166.024 230.078 164.793 226.924 163.182C226.641 163.041 226.358 162.889 226.075 162.743C225.656 162.52 225.247 162.288 224.839 162.045C225.035 161.773 225.247 161.505 225.464 161.242C227.827 158.313 230.78 155.914 234.131 154.203C237.482 152.492 241.155 151.507 244.912 151.312C248.669 151.116 252.425 151.715 255.936 153.069C259.446 154.423 262.631 156.503 265.285 159.171C266.206 160.096 267.059 161.085 267.839 162.131C268.046 162.404 268.243 162.682 268.435 162.965Z" fill="#3066BE"/>
<path d="M248.475 140.775C260.719 140.775 270.644 130.844 270.644 118.593C270.644 106.343 260.719 96.4117 248.475 96.4117C236.231 96.4117 226.306 106.343 226.306 118.593C226.306 130.844 236.231 140.775 248.475 140.775Z" fill="#2F2E41"/>
<path d="M254.371 140.806C262.367 136.432 265.306 126.402 260.935 118.401C256.564 110.401 246.539 107.461 238.543 111.834C230.547 116.207 227.608 126.238 231.979 134.239C236.35 142.239 246.375 145.179 254.371 140.806Z" fill="#A0616A"/>
<path d="M263.795 115.936C260.024 118.536 255.549 119.92 250.97 119.901C252.603 121.035 254.463 121.8 256.42 122.145C250.332 123.452 244.039 123.487 237.937 122.249C236.58 122.031 235.271 121.582 234.067 120.919C233.467 120.584 232.944 120.126 232.533 119.576C232.122 119.025 231.83 118.394 231.679 117.723C231.273 115.405 233.078 113.299 234.954 111.88C237.827 109.74 241.138 108.266 244.65 107.564C248.162 106.862 251.785 106.949 255.259 107.821C257.527 108.407 259.799 109.398 261.273 111.221C262.746 113.043 263.182 115.853 261.779 117.73L263.795 115.936Z" fill="#2F2E41"/>
<path d="M247.467 77.1735C237.558 77.172 227.919 80.4124 220.021 86.4009C212.123 92.3893 206.398 100.797 203.719 110.343C201.04 119.889 201.555 130.05 205.183 139.277C208.812 148.503 215.356 156.29 223.819 161.449L224.112 161.621C224.354 161.768 224.596 161.909 224.839 162.045C225.248 162.288 225.656 162.52 226.075 162.743C226.358 162.889 226.641 163.041 226.924 163.182C230.078 164.793 233.411 166.024 236.855 166.849C237.567 167.021 238.278 167.178 239.006 167.309C241.795 167.838 244.628 168.103 247.467 168.102C248.184 168.102 248.896 168.087 249.608 168.052C250.608 168.006 251.597 167.927 252.577 167.814C253.763 167.683 254.935 167.504 256.091 167.279C258.426 166.829 260.722 166.196 262.957 165.384C263.24 165.278 263.523 165.172 263.8 165.066C264.563 164.773 265.312 164.46 266.047 164.127C266.855 163.763 267.651 163.376 268.435 162.965C276.295 158.846 282.791 152.534 287.136 144.794C287.156 144.754 287.182 144.713 287.202 144.673C289.52 140.511 291.164 136.008 292.074 131.332C293.351 124.748 293.158 117.963 291.507 111.464C289.857 104.964 286.791 98.909 282.528 93.7336C278.265 88.5581 272.912 84.3897 266.85 81.5268C260.789 78.6638 254.17 77.1773 247.467 77.1735ZM286.374 144.082C286.333 144.153 286.298 144.223 286.258 144.289C282 151.915 275.595 158.12 267.839 162.131C267.067 162.535 266.281 162.914 265.482 163.268C264.82 163.566 264.144 163.849 263.462 164.111C263.174 164.223 262.882 164.334 262.589 164.435C260.657 165.141 258.678 165.708 256.666 166.132C255.174 166.45 253.665 166.688 252.148 166.844C251.213 166.945 250.264 167.016 249.31 167.052C248.699 167.077 248.083 167.092 247.467 167.092C244.72 167.095 241.978 166.84 239.278 166.329C237.636 166.026 236.012 165.628 234.416 165.137C231.984 164.385 229.621 163.427 227.353 162.273C227.09 162.136 226.828 162 226.57 161.858C226.202 161.661 225.828 161.459 225.464 161.242C225.192 161.091 224.919 160.929 224.652 160.767C224.495 160.676 224.339 160.58 224.182 160.484C216.763 155.926 210.844 149.287 207.161 141.394C203.478 133.5 202.192 124.698 203.463 116.08C204.734 107.461 208.506 99.4059 214.311 92.913C220.116 86.42 227.698 81.7751 236.117 79.5546C244.537 77.3341 253.422 77.6357 261.672 80.4219C269.921 83.2081 277.172 88.3563 282.524 95.2279C287.875 102.099 291.093 110.392 291.778 119.077C292.462 127.761 290.583 136.456 286.374 144.082Z" fill="#3F3D56"/>
<path d="M237.248 96.7178C237.01 94.2081 233.937 92.6631 231.534 93.4212C229.131 94.1792 227.553 96.6001 227.077 99.0755C226.847 100.118 226.826 101.196 227.013 102.246C227.201 103.297 227.594 104.301 228.17 105.199C229.384 106.948 231.616 108.04 233.698 107.596C236.075 107.089 237.721 104.767 238.192 102.382C238.663 99.9968 238.196 97.5378 237.729 95.1519L237.248 96.7178Z" fill="#2F2E41"/>
<path d="M271.066 100.303C270.828 97.7933 267.755 96.2483 265.352 97.0064C262.949 97.7644 261.372 100.185 260.895 102.661C260.665 103.703 260.644 104.781 260.831 105.832C261.019 106.882 261.412 107.886 261.988 108.784C263.203 110.533 265.435 111.625 267.517 111.181C269.893 110.674 271.54 108.352 272.011 105.967C272.482 103.582 272.014 101.123 271.547 98.7371L271.066 100.303Z" fill="#2F2E41"/>
<path d="M168.926 140.808C168.611 140.807 168.301 140.741 168.013 140.614C167.726 140.487 167.468 140.301 167.256 140.068L142.203 112.722C141.919 112.412 141.573 112.165 141.189 111.996C140.804 111.826 140.388 111.739 139.968 111.738H7.57793C5.56883 111.736 3.64267 110.936 2.22202 109.515C0.801365 108.094 0.00225571 106.166 0 104.156V56.387C0.00225437 54.3768 0.801365 52.4496 2.22202 51.0282C3.64267 49.6068 5.56883 48.8072 7.57793 48.805H179.1C181.109 48.8072 183.035 49.6068 184.455 51.0282C185.876 52.4496 186.675 54.3768 186.677 56.387V104.156C186.675 106.166 185.876 108.094 184.455 109.515C183.035 110.937 181.109 111.736 179.1 111.738H174.237C173.433 111.739 172.662 112.059 172.094 112.628C171.526 113.197 171.206 113.968 171.205 114.772V138.531C171.207 138.99 171.07 139.438 170.811 139.817C170.552 140.195 170.184 140.486 169.756 140.651C169.492 140.754 169.21 140.807 168.926 140.808Z" fill="#FFF8EB"/>
<path d="M168.926 140.808C168.611 140.807 168.301 140.741 168.013 140.614C167.726 140.487 167.468 140.301 167.256 140.068L142.203 112.722C141.919 112.412 141.573 112.165 141.189 111.996C140.804 111.826 140.388 111.739 139.968 111.738H7.57793C5.56883 111.736 3.64267 110.936 2.22202 109.515C0.801365 108.094 0.00225571 106.166 0 104.156V56.387C0.00225437 54.3768 0.801365 52.4496 2.22202 51.0282C3.64267 49.6068 5.56883 48.8072 7.57793 48.805H179.1C181.109 48.8072 183.035 49.6068 184.455 51.0282C185.876 52.4496 186.675 54.3768 186.677 56.387V104.156C186.675 106.166 185.876 108.094 184.455 109.515C183.035 110.937 181.109 111.736 179.1 111.738H174.237C173.433 111.739 172.662 112.059 172.094 112.628C171.526 113.197 171.206 113.968 171.205 114.772V138.531C171.207 138.99 171.07 139.438 170.811 139.817C170.552 140.195 170.184 140.486 169.756 140.651C169.492 140.754 169.21 140.807 168.926 140.808ZM7.57793 49.8153C5.83655 49.8173 4.16705 50.5103 2.93571 51.7423C1.70436 52.9743 1.01173 54.6447 1.00977 56.387V104.156C1.01174 105.899 1.70437 107.569 2.93571 108.801C4.16706 110.033 5.83655 110.726 7.57793 110.728H139.968C140.528 110.729 141.082 110.845 141.595 111.071C142.108 111.297 142.568 111.626 142.947 112.039L168.001 139.385C168.173 139.573 168.397 139.704 168.645 139.762C168.893 139.82 169.153 139.801 169.39 139.709C169.627 139.617 169.831 139.455 169.975 139.245C170.118 139.034 170.195 138.786 170.195 138.531V114.772C170.197 113.7 170.623 112.672 171.38 111.914C172.138 111.156 173.165 110.729 174.237 110.728H179.1C180.841 110.726 182.51 110.033 183.742 108.801C184.973 107.569 185.666 105.899 185.668 104.156V56.387C185.666 54.6447 184.973 52.9743 183.742 51.7423C182.51 50.5103 180.841 49.8173 179.1 49.8153H7.57793Z" fill="#3F3D56"/>
<path d="M18.5878 69.8773C22.25 69.8773 25.2188 66.9069 25.2188 63.2427C25.2188 59.5785 22.25 56.6081 18.5878 56.6081C14.9256 56.6081 11.9568 59.5785 11.9568 63.2427C11.9568 66.9069 14.9256 69.8773 18.5878 69.8773Z" fill="#3066BE"/>
<path d="M171.363 99.9543H15.3141C14.8493 99.9549 14.389 99.8637 13.9594 99.6862C13.5298 99.5086 13.1395 99.248 12.8106 98.9194C12.4818 98.5908 12.2209 98.2005 12.0429 97.7709C11.8649 97.3414 11.7733 96.8809 11.7733 96.4158C11.7733 95.9508 11.8649 95.4903 12.0429 95.0608C12.2209 94.6312 12.4818 94.2409 12.8106 93.9123C13.1395 93.5836 13.5298 93.3231 13.9594 93.1455C14.389 92.9679 14.8493 92.8768 15.3141 92.8774H171.363C172.301 92.8785 173.199 93.2518 173.861 93.9153C174.524 94.5787 174.896 95.4781 174.896 96.4158C174.896 97.3536 174.524 98.253 173.861 98.9164C173.199 99.5799 172.301 99.9532 171.363 99.9543Z" fill="#E6E6E6"/>
<path d="M120.526 84.9158H15.3141C14.8493 84.9164 14.389 84.8253 13.9594 84.6477C13.5298 84.4701 13.1395 84.2096 12.8106 83.8809C12.4818 83.5523 12.2209 83.162 12.0429 82.7324C11.8649 82.3029 11.7733 81.8424 11.7733 81.3774C11.7733 80.9123 11.8649 80.4518 12.0429 80.0223C12.2209 79.5927 12.4818 79.2024 12.8106 78.8738C13.1395 78.5452 13.5298 78.2846 13.9594 78.107C14.389 77.9295 14.8493 77.8383 15.3141 77.8389H120.526C121.464 77.8389 122.363 78.2117 123.026 78.8753C123.69 79.5389 124.062 80.4389 124.062 81.3774C124.062 82.3158 123.69 83.2158 123.026 83.8794C122.363 84.543 121.464 84.9158 120.526 84.9158Z" fill="#E6E6E6"/>
<path d="M280.244 302.807C279.816 302.642 279.448 302.352 279.189 301.973C278.93 301.594 278.793 301.146 278.795 300.687V276.928C278.794 276.124 278.474 275.353 277.906 274.784C277.338 274.215 276.567 273.896 275.763 273.895H270.9C268.891 273.892 266.965 273.093 265.545 271.671C264.124 270.25 263.325 268.323 263.323 266.313V218.543C263.325 216.533 264.124 214.606 265.545 213.185C266.965 211.763 268.891 210.964 270.9 210.961H442.422C444.431 210.964 446.357 211.763 447.778 213.185C449.199 214.606 449.998 216.533 450 218.543V266.313C449.998 268.323 449.199 270.25 447.778 271.671C446.357 273.093 444.431 273.892 442.422 273.895H310.032C309.611 273.895 309.196 273.983 308.811 274.152C308.427 274.321 308.081 274.569 307.797 274.878L282.744 302.224C282.532 302.457 282.274 302.643 281.987 302.77C281.699 302.898 281.389 302.964 281.074 302.964C280.79 302.964 280.508 302.91 280.244 302.807Z" fill="#FFF8EB"/>
<path d="M280.244 302.807C279.816 302.642 279.448 302.352 279.189 301.973C278.93 301.594 278.793 301.146 278.795 300.687V276.928C278.794 276.124 278.474 275.353 277.906 274.784C277.338 274.215 276.567 273.896 275.763 273.895H270.9C268.891 273.892 266.965 273.093 265.545 271.671C264.124 270.25 263.325 268.323 263.323 266.313V218.543C263.325 216.533 264.124 214.606 265.545 213.185C266.965 211.763 268.891 210.964 270.9 210.961H442.422C444.431 210.964 446.357 211.763 447.778 213.185C449.199 214.606 449.998 216.533 450 218.543V266.313C449.998 268.323 449.199 270.25 447.778 271.671C446.357 273.093 444.431 273.892 442.422 273.895H310.032C309.611 273.895 309.196 273.983 308.811 274.152C308.427 274.321 308.081 274.569 307.797 274.878L282.744 302.224C282.532 302.457 282.274 302.643 281.987 302.77C281.699 302.898 281.389 302.964 281.074 302.964C280.79 302.964 280.508 302.91 280.244 302.807ZM270.9 211.972C269.159 211.974 267.49 212.667 266.258 213.899C265.027 215.131 264.334 216.801 264.332 218.543V266.313C264.334 268.055 265.027 269.725 266.258 270.957C267.49 272.189 269.159 272.882 270.9 272.884H275.763C276.835 272.886 277.862 273.312 278.62 274.07C279.377 274.828 279.803 275.856 279.805 276.928V300.687C279.805 300.942 279.881 301.191 280.025 301.401C280.169 301.611 280.373 301.773 280.61 301.865C280.847 301.958 281.107 301.976 281.355 301.918C281.603 301.861 281.827 301.729 281.999 301.542L307.053 274.196C307.432 273.783 307.892 273.453 308.405 273.227C308.918 273.002 309.472 272.885 310.032 272.884H442.422C444.163 272.882 445.833 272.189 447.064 270.957C448.296 269.725 448.988 268.055 448.99 266.313V218.543C448.988 216.801 448.296 215.131 447.064 213.899C445.833 212.667 444.163 211.974 442.422 211.972H270.9Z" fill="#3F3D56"/>
<path d="M226.782 317.599C219.749 322.106 211.599 324.563 203.248 324.696C194.897 324.829 186.673 322.632 179.5 318.352C180.762 316.002 182.361 313.849 184.246 311.962C187.155 309.038 190.695 306.819 194.594 305.478C198.493 304.136 202.648 303.706 206.739 304.222C210.83 304.738 214.748 306.185 218.193 308.452C221.638 310.719 224.518 313.747 226.611 317.301C226.666 317.397 226.727 317.498 226.782 317.599Z" fill="#3066BE"/>
<path d="M201.167 293.442C213.492 293.442 223.484 283.445 223.484 271.113C223.484 258.782 213.492 248.785 201.167 248.785C188.842 248.785 178.85 258.782 178.85 271.113C178.85 283.445 188.842 293.442 201.167 293.442Z" fill="#2F2E41"/>
<path d="M217.773 286.863C222.173 278.809 219.215 268.712 211.165 264.309C203.116 259.907 193.024 262.867 188.624 270.92C184.224 278.974 187.182 289.071 195.231 293.474C203.281 297.876 213.373 294.916 217.773 286.863Z" fill="#FFB8B8"/>
<path d="M185.746 268.438C189.541 271.056 194.046 272.449 198.656 272.43C197.011 273.571 195.14 274.342 193.169 274.689C199.298 276.005 205.632 276.04 211.776 274.794C213.141 274.575 214.459 274.122 215.671 273.455C216.275 273.118 216.801 272.657 217.215 272.103C217.629 271.548 217.922 270.913 218.075 270.238C218.483 267.905 216.666 265.785 214.777 264.356C211.886 262.202 208.552 260.718 205.017 260.011C201.482 259.304 197.835 259.392 194.338 260.269C192.055 260.86 189.767 261.858 188.284 263.692C186.801 265.527 186.362 268.355 187.775 270.244L185.746 268.438Z" fill="#2F2E41"/>
<path d="M202.533 325.207C191.603 325.204 181.041 321.258 172.785 314.093C164.528 306.928 159.129 297.025 157.58 286.2C156.031 275.375 158.434 264.354 164.349 255.158C170.265 245.963 179.295 239.209 189.784 236.137C200.274 233.065 211.518 233.879 221.456 238.431C231.394 242.984 239.358 250.968 243.887 260.92C248.417 270.872 249.209 282.125 246.117 292.613C243.025 303.102 236.258 312.124 227.055 318.024C219.737 322.719 211.226 325.212 202.533 325.207ZM202.533 235.289C193.744 235.288 185.153 237.895 177.845 242.779C170.537 247.664 164.841 254.608 161.478 262.731C158.114 270.855 157.234 279.795 158.948 288.419C160.662 297.044 164.895 304.966 171.109 311.184C177.323 317.401 185.241 321.636 193.861 323.351C202.481 325.066 211.415 324.186 219.535 320.82C227.654 317.455 234.594 311.756 239.476 304.444C244.358 297.132 246.963 288.536 246.962 279.743C246.949 267.957 242.264 256.657 233.935 248.324C225.605 239.99 214.312 235.302 202.533 235.289Z" fill="#3F3D56"/>
<path d="M284.661 231.529C288.324 231.529 291.292 228.558 291.292 224.894C291.292 221.23 288.324 218.259 284.661 218.259C280.999 218.259 278.03 221.23 278.03 224.894C278.03 228.558 280.999 231.529 284.661 231.529Z" fill="#3066BE"/>
<path d="M437.437 261.605H281.388C280.923 261.606 280.463 261.515 280.033 261.337C279.603 261.16 279.213 260.899 278.884 260.571C278.555 260.242 278.294 259.852 278.116 259.422C277.938 258.993 277.847 258.532 277.847 258.067C277.847 257.602 277.938 257.142 278.116 256.712C278.294 256.282 278.555 255.892 278.884 255.563C279.213 255.235 279.603 254.974 280.033 254.797C280.463 254.619 280.923 254.528 281.388 254.529H437.437C438.375 254.529 439.274 254.901 439.938 255.565C440.601 256.229 440.973 257.129 440.973 258.067C440.973 259.005 440.601 259.905 439.938 260.569C439.274 261.233 438.375 261.605 437.437 261.605Z" fill="#E6E6E6"/>
<path d="M386.599 246.567H281.388C280.923 246.568 280.463 246.476 280.033 246.299C279.603 246.121 279.213 245.861 278.884 245.532C278.555 245.203 278.294 244.813 278.116 244.384C277.938 243.954 277.847 243.494 277.847 243.029C277.847 242.563 277.938 242.103 278.116 241.673C278.294 241.244 278.555 240.854 278.884 240.525C279.213 240.196 279.603 239.936 280.033 239.758C280.463 239.581 280.923 239.489 281.388 239.49H386.599C387.537 239.491 388.435 239.864 389.097 240.528C389.76 241.191 390.132 242.091 390.132 243.029C390.132 243.966 389.76 244.866 389.097 245.529C388.435 246.193 387.537 246.566 386.599 246.567Z" fill="#E6E6E6"/>
<path d="M280.03 307.329C286.863 307.329 292.402 306.714 292.402 305.956C292.402 305.197 286.863 304.582 280.03 304.582C273.198 304.582 267.659 305.197 267.659 305.956C267.659 306.714 273.198 307.329 280.03 307.329Z" fill="#F2F2F2"/>
<path d="M169.461 145.678C176.294 145.678 181.832 145.063 181.832 144.304C181.832 143.546 176.294 142.931 169.461 142.931C162.628 142.931 157.089 143.546 157.089 144.304C157.089 145.063 162.628 145.678 169.461 145.678Z" fill="#F2F2F2"/>
</svg>
