<svg width="70" height="70" viewBox="0 0 70 70" fill="none" xmlns="http://www.w3.org/2000/svg">
<path d="M8.75 26.25V56.875H61.25V26.25H8.75ZM6.5625 21.875H63.4375C64.0177 21.875 64.5741 22.1055 64.9843 22.5157C65.3945 22.9259 65.625 23.4823 65.625 24.0625V59.0625C65.625 59.6427 65.3945 60.1991 64.9843 60.6093C64.5741 61.0195 64.0177 61.25 63.4375 61.25H6.5625C5.98234 61.25 5.42594 61.0195 5.0157 60.6093C4.60547 60.1991 4.375 59.6427 4.375 59.0625V24.0625C4.375 23.4823 4.60547 22.9259 5.0157 22.5157C5.42594 22.1055 5.98234 21.875 6.5625 21.875ZM10.9375 13.125H59.0625V17.5H10.9375V13.125ZM17.5 4.375H52.5V8.75H17.5V4.375Z" fill="#FFF8EB"/>
</svg>
