<svg width="450" height="371" viewBox="0 0 450 371" fill="none" xmlns="http://www.w3.org/2000/svg">
<g clip-path="url(#clip0_359_3489)">
<path d="M239.277 86.1385H83.612C79.8601 86.1343 76.2631 84.642 73.6101 81.989C70.9572 79.336 69.4649 75.739 69.4607 71.9872V14.1513C69.4649 10.3995 70.9572 6.8025 73.6102 4.14954C76.2632 1.49657 79.8601 0.00426657 83.612 0H239.277C243.028 0.00426494 246.625 1.49657 249.278 4.14954C251.931 6.8025 253.424 10.3995 253.428 14.1513V71.9872C253.424 75.739 251.931 79.336 249.278 81.989C246.625 84.642 243.028 86.1343 239.277 86.1385Z" fill="#FFF8EB"/>
<path d="M239.277 86.1385H83.612C79.8601 86.1343 76.2631 84.642 73.6101 81.989C70.9572 79.336 69.4649 75.739 69.4607 71.9872V14.1513C69.4649 10.3995 70.9572 6.8025 73.6102 4.14954C76.2632 1.49657 79.8601 0.00426657 83.612 0H239.277C243.028 0.00426494 246.625 1.49657 249.278 4.14954C251.931 6.8025 253.424 10.3995 253.428 14.1513V71.9872C253.424 75.739 251.931 79.336 249.278 81.989C246.625 84.642 243.028 86.1343 239.277 86.1385ZM83.612 1.23055C80.1864 1.23439 76.9021 2.59692 74.4799 5.0192C72.0576 7.44148 70.6951 10.7257 70.6912 14.1513V71.9872C70.6951 75.4128 72.0576 78.697 74.4799 81.1192C76.9022 83.5415 80.1864 84.904 83.612 84.9079H239.277C242.702 84.904 245.986 83.5415 248.409 81.1192C250.831 78.697 252.193 75.4128 252.197 71.9872V14.1513C252.193 10.7257 250.831 7.44148 248.409 5.0192C245.986 2.59692 242.702 1.23439 239.277 1.23055H83.612Z" fill="#3F3D56"/>
<path d="M298.179 94.0096H215.382C214.859 94.0036 214.339 93.9376 213.831 93.8131C212.317 93.4492 210.969 92.5848 210.006 91.3599C209.044 90.1349 208.523 88.621 208.527 87.0631V58.9203C208.53 57.0794 209.263 55.3149 210.565 54.0138C211.868 52.7127 213.633 51.9813 215.474 51.9801H298.179C299.294 51.9772 300.393 52.2461 301.38 52.7637C301.773 52.9675 302.145 53.2102 302.49 53.488C303.314 54.1329 303.98 54.9576 304.437 55.8991C304.893 56.8406 305.129 57.8739 305.125 58.9203V87.0631C305.123 88.9048 304.391 90.6705 303.089 91.9728C301.786 93.2751 300.021 94.0076 298.179 94.0096Z" fill="#FFF8EB"/>
<path d="M292.629 93.3943C296.389 84.2575 300.349 75.2109 304.51 66.2545V81.4395C301.673 85.7564 298.39 89.7633 294.715 93.3943H292.629Z" fill="#E6E6E6"/>
<path d="M302.105 53.9675C294.666 67.3129 286.883 80.4551 278.755 93.3944H277.34C285.603 80.2521 293.521 66.8904 301.095 53.3092C301.453 53.4945 301.791 53.7151 302.105 53.9675Z" fill="#E6E6E6"/>
<path d="M247.517 68.5373C242.656 77.1319 237.292 85.432 231.452 93.3944H223.017C228.542 86.6632 234.072 79.9321 239.605 73.201C241.192 71.2629 242.915 69.2325 245.296 68.4449L247.517 68.5373Z" fill="#E6E6E6"/>
<path d="M236.307 67.159C235.427 68.0758 234.584 69.0294 233.791 70.02C232.043 72.1243 230.32 74.247 228.591 76.3635C227.515 77.6802 226.438 78.9969 225.374 80.3136C225.036 80.0965 224.715 79.8537 224.414 79.5876C222.714 78.1119 221.659 76.0291 221.476 73.7854C221.293 71.5416 221.997 69.3155 223.435 67.584C224.874 65.8525 226.933 64.7534 229.173 64.5221C231.412 64.2909 233.653 64.9459 235.415 66.3468C235.732 66.5945 236.031 66.866 236.307 67.159Z" fill="#3066BE"/>
<path d="M283.886 73.1395L267.717 67.2267L259.687 64.2918C257.073 63.3381 254.464 62.2491 251.763 61.56C249.414 60.8887 246.919 60.9208 244.589 61.6523C242.51 62.4215 240.608 63.6017 238.996 65.1224C238.282 65.7808 237.591 66.4596 236.922 67.159C236.042 68.0758 235.199 69.0294 234.406 70.02C232.658 72.1243 230.936 74.247 229.207 76.3635C228.13 77.6802 227.053 78.9969 225.989 80.3136C222.433 84.6636 218.897 89.0238 215.381 93.3943C214.909 93.3888 214.438 93.329 213.979 93.2159C217.646 88.6628 221.329 84.1201 225.029 79.5875C225.454 79.0584 225.89 78.5231 226.321 77.994C228.124 75.7852 229.929 73.5784 231.736 71.3736C233.132 69.6693 234.517 67.9527 236.03 66.3468C236.165 66.1992 236.301 66.0577 236.442 65.91C239.513 62.7352 243.346 59.9295 247.936 59.8557C250.637 59.8126 253.245 60.6678 255.756 61.5723C258.457 62.5506 261.152 63.5473 263.853 64.5379L280.133 70.4938L284.206 71.9828C284.926 72.2412 284.618 73.4102 283.886 73.1395Z" fill="#E6E6E6"/>
<path d="M298.179 94.0096H215.382C214.859 94.0036 214.339 93.9376 213.831 93.8131C212.317 93.4492 210.969 92.5848 210.006 91.3599C209.044 90.1349 208.523 88.621 208.527 87.0631V58.9203C208.53 57.0794 209.263 55.3149 210.565 54.0138C211.868 52.7127 213.633 51.9813 215.474 51.9801H298.179C299.294 51.9772 300.393 52.2461 301.38 52.7637C301.773 52.9675 302.145 53.2102 302.49 53.488C303.314 54.1329 303.98 54.9576 304.437 55.8991C304.893 56.8406 305.129 57.8739 305.125 58.9203V87.0631C305.123 88.9048 304.391 90.6705 303.089 91.9728C301.786 93.2751 300.021 94.0076 298.179 94.0096ZM215.474 53.2107C213.959 53.2116 212.507 53.8132 211.435 54.8836C210.364 55.954 209.76 57.4057 209.758 58.9203V87.0631C209.754 88.3452 210.183 89.5911 210.975 90.5991C211.767 91.6072 212.876 92.3185 214.123 92.618C214.538 92.7196 214.962 92.7736 215.389 92.779H298.179C299.694 92.7773 301.147 92.1745 302.219 91.1029C303.29 90.0314 303.893 88.5786 303.895 87.0631V58.9203C303.898 58.0592 303.703 57.2089 303.327 56.4344C302.951 55.6598 302.403 54.9815 301.724 54.4511C301.441 54.2228 301.136 54.0233 300.813 53.8557C300.001 53.4297 299.096 53.2083 298.179 53.2107H215.474Z" fill="#3F3D56"/>
<path d="M133.515 120.894H14.1513C10.3995 120.89 6.80246 119.398 4.14948 116.745C1.49651 114.092 0.00421456 110.495 0 106.743V85.8236C0.00426494 82.0717 1.49657 78.4747 4.14954 75.8218C6.8025 73.1688 10.3995 71.6765 14.1513 71.6722H133.515C137.267 71.6765 140.863 73.1688 143.516 75.8218C146.169 78.4747 147.662 82.0717 147.666 85.8236V106.743C147.662 110.495 146.169 114.092 143.517 116.745C140.864 119.398 137.267 120.89 133.515 120.894Z" fill="white"/>
<path d="M133.515 120.894H14.1513C10.3995 120.89 6.80246 119.398 4.14948 116.745C1.49651 114.092 0.00421456 110.495 0 106.743V85.8236C0.00426494 82.0717 1.49657 78.4747 4.14954 75.8218C6.8025 73.1688 10.3995 71.6765 14.1513 71.6722H133.515C137.267 71.6765 140.863 73.1688 143.516 75.8218C146.169 78.4747 147.662 82.0717 147.666 85.8236V106.743C147.662 110.495 146.169 114.092 143.517 116.745C140.864 119.398 137.267 120.89 133.515 120.894ZM14.1513 72.9028C10.7257 72.9066 7.44148 74.2692 5.0192 76.6914C2.59692 79.1137 1.23439 82.3979 1.23055 85.8236V106.743C1.23444 110.169 2.59698 113.453 5.01926 115.875C7.44153 118.297 10.7257 119.66 14.1513 119.664H133.515C136.94 119.66 140.224 118.297 142.647 115.875C145.069 113.453 146.432 110.169 146.435 106.743V85.8236C146.432 82.3979 145.069 79.1137 142.647 76.6914C140.225 74.2692 136.94 72.9066 133.515 72.9028H14.1513Z" fill="#3F3D56"/>
<path d="M49.1992 109.128H30.0098C28.9841 109.127 28.0007 108.719 27.2754 107.993C26.5501 107.268 26.1421 106.285 26.141 105.259V87.3076C26.1421 86.2818 26.5501 85.2984 27.2754 84.5731C28.0007 83.8478 28.9841 83.4399 30.0098 83.4387H49.1992C50.2249 83.4399 51.2083 83.8478 51.9336 84.5731C52.6589 85.2984 53.0669 86.2818 53.0681 87.3076V105.259C53.0669 106.285 52.6589 107.268 51.9336 107.993C51.2083 108.719 50.2249 109.127 49.1992 109.128Z" fill="#3066BE"/>
<path d="M83.4277 109.128H64.2383C63.2126 109.127 62.2292 108.719 61.5039 107.993C60.7786 107.268 60.3706 106.285 60.3694 105.259V87.3076C60.3706 86.2818 60.7786 85.2984 61.5039 84.5731C62.2292 83.8478 63.2126 83.4399 64.2383 83.4387H83.4277C84.4534 83.4399 85.4368 83.8478 86.1621 84.5731C86.8874 85.2984 87.2954 86.2818 87.2965 87.3076V105.259C87.2954 106.285 86.8874 107.268 86.1621 107.993C85.4368 108.719 84.4534 109.127 83.4277 109.128Z" fill="#E6E6E6"/>
<path d="M117.656 109.128H98.4667C97.441 109.127 96.4576 108.719 95.7323 107.993C95.007 107.268 94.599 106.285 94.5979 105.259V87.3076C94.599 86.2818 95.007 85.2984 95.7323 84.5731C96.4576 83.8478 97.441 83.4399 98.4667 83.4387H117.656C118.682 83.4399 119.665 83.8478 120.391 84.5731C121.116 85.2984 121.524 86.2818 121.525 87.3076V105.259C121.524 106.285 121.116 107.268 120.391 107.993C119.665 108.719 118.682 109.127 117.656 109.128Z" fill="#E6E6E6"/>
<path d="M169.033 34.1405H144.422C143.77 34.1405 143.144 33.8812 142.682 33.4197C142.221 32.9581 141.961 32.3321 141.961 31.6794C141.961 31.0267 142.221 30.4007 142.682 29.9392C143.144 29.4776 143.77 29.2183 144.422 29.2183H169.033C169.686 29.2183 170.312 29.4776 170.774 29.9392C171.235 30.4007 171.495 31.0267 171.495 31.6794C171.495 32.3321 171.235 32.9581 170.774 33.4197C170.312 33.8812 169.686 34.1405 169.033 34.1405Z" fill="#CCCCCC"/>
<path d="M221.947 47.6766H143.807C143.154 47.6766 142.528 47.4173 142.067 46.9557C141.605 46.4942 141.346 45.8682 141.346 45.2155C141.346 44.5628 141.605 43.9368 142.067 43.4752C142.528 43.0137 143.154 42.7544 143.807 42.7544H221.947C222.6 42.7544 223.226 43.0137 223.687 43.4752C224.149 43.9368 224.408 44.5628 224.408 45.2155C224.408 45.8682 224.149 46.4942 223.687 46.9557C223.226 47.4173 222.6 47.6766 221.947 47.6766Z" fill="#CCCCCC"/>
<path d="M115.194 54.9484C124.308 54.9484 131.695 47.5607 131.695 38.4474C131.695 29.3342 124.308 21.9464 115.194 21.9464C106.081 21.9464 98.6935 29.3342 98.6935 38.4474C98.6935 47.5607 106.081 54.9484 115.194 54.9484Z" fill="#3066BE"/>
<path d="M294.717 192.881H139.052C135.3 192.877 131.703 191.385 129.05 188.732C126.397 186.079 124.905 182.482 124.901 178.73V120.894C124.905 117.142 126.397 113.545 129.05 110.892C131.703 108.239 135.3 106.747 139.052 106.743H294.717C298.469 106.747 302.066 108.239 304.718 110.892C307.371 113.545 308.864 117.142 308.868 120.894V178.73C308.864 182.482 307.372 186.079 304.719 188.732C302.066 191.385 298.469 192.877 294.717 192.881Z" fill="#FFF8EB"/>
<path d="M294.717 192.881H139.052C135.3 192.877 131.703 191.385 129.05 188.732C126.397 186.079 124.905 182.482 124.901 178.73V120.894C124.905 117.142 126.397 113.545 129.05 110.892C131.703 108.239 135.3 106.747 139.052 106.743H294.717C298.469 106.747 302.066 108.239 304.718 110.892C307.371 113.545 308.864 117.142 308.868 120.894V178.73C308.864 182.482 307.372 186.079 304.719 188.732C302.066 191.385 298.469 192.877 294.717 192.881ZM139.052 107.973C135.627 107.977 132.342 109.34 129.92 111.762C127.498 114.184 126.135 117.469 126.131 120.894V178.73C126.135 182.156 127.498 185.44 129.92 187.862C132.342 190.284 135.627 191.647 139.052 191.651H294.717C298.142 191.647 301.426 190.284 303.849 187.862C306.271 185.44 307.634 182.156 307.637 178.73V120.894C307.634 117.469 306.271 114.184 303.849 111.762C301.427 109.34 298.142 107.977 294.717 107.973H139.052Z" fill="#3F3D56"/>
<path d="M199.68 129.658H173.533C173.205 129.658 172.88 129.594 172.577 129.469C172.273 129.344 171.998 129.16 171.765 128.928C171.533 128.696 171.349 128.421 171.223 128.117C171.097 127.814 171.033 127.489 171.033 127.161C171.033 126.833 171.097 126.508 171.223 126.205C171.349 125.901 171.533 125.626 171.765 125.394C171.998 125.162 172.273 124.978 172.577 124.853C172.88 124.728 173.205 124.664 173.533 124.664H199.68C200.342 124.665 200.976 124.929 201.444 125.397C201.911 125.865 202.174 126.499 202.174 127.161C202.174 127.823 201.911 128.457 201.444 128.925C200.976 129.393 200.342 129.657 199.68 129.658Z" fill="#3066BE"/>
<path d="M258.294 139.871H173.533C172.871 139.871 172.236 139.608 171.768 139.139C171.299 138.671 171.036 138.036 171.036 137.374C171.036 136.711 171.299 136.076 171.768 135.608C172.236 135.14 172.871 134.877 173.533 134.877H258.294C258.956 134.877 259.591 135.14 260.059 135.608C260.528 136.076 260.791 136.711 260.791 137.374C260.791 138.036 260.528 138.671 260.059 139.139C259.591 139.608 258.956 139.871 258.294 139.871Z" fill="#E6E6E6"/>
<path d="M258.294 151.593H173.533C173.205 151.593 172.881 151.529 172.578 151.403C172.275 151.278 172 151.094 171.768 150.862C171.536 150.63 171.352 150.355 171.226 150.052C171.101 149.749 171.036 149.424 171.036 149.096C171.036 148.768 171.101 148.444 171.226 148.141C171.352 147.838 171.536 147.562 171.768 147.331C172 147.099 172.275 146.915 172.578 146.789C172.881 146.664 173.205 146.599 173.533 146.599H258.294C258.956 146.599 259.591 146.862 260.059 147.331C260.528 147.799 260.791 148.434 260.791 149.096C260.791 149.758 260.528 150.394 260.059 150.862C259.591 151.33 258.956 151.593 258.294 151.593Z" fill="#E6E6E6"/>
<path d="M258.294 163.316H173.533C173.205 163.316 172.88 163.252 172.577 163.127C172.273 163.002 171.998 162.818 171.765 162.586C171.533 162.354 171.349 162.078 171.223 161.775C171.097 161.472 171.033 161.147 171.033 160.819C171.033 160.491 171.097 160.166 171.223 159.862C171.349 159.559 171.533 159.284 171.765 159.052C171.998 158.82 172.273 158.636 172.577 158.511C172.88 158.386 173.205 158.321 173.533 158.322H258.294C258.955 158.323 259.589 158.586 260.057 159.055C260.524 159.523 260.787 160.157 260.787 160.819C260.787 161.48 260.524 162.115 260.057 162.583C259.589 163.051 258.955 163.315 258.294 163.316Z" fill="#E6E6E6"/>
<path d="M258.294 175.038H173.533C172.871 175.038 172.236 174.775 171.768 174.307C171.299 173.839 171.036 173.204 171.036 172.542C171.036 171.879 171.299 171.244 171.768 170.776C172.236 170.308 172.871 170.045 173.533 170.045H258.294C258.956 170.045 259.591 170.308 260.059 170.776C260.528 171.244 260.791 171.879 260.791 172.542C260.791 173.204 260.528 173.839 260.059 174.307C259.591 174.775 258.956 175.038 258.294 175.038Z" fill="#E6E6E6"/>
<path d="M368.246 359.885L359.703 359.885L355.638 326.928L368.248 326.929L368.246 359.885Z" fill="#FFB6B6"/>
<path d="M368.547 368.798L342.273 368.797V368.465C342.273 365.753 343.351 363.152 345.269 361.234C347.186 359.316 349.787 358.239 352.5 358.238L357.3 354.597L366.254 358.239L368.548 358.239L368.547 368.798Z" fill="#2F2E41"/>
<path d="M428.133 344.169L421.144 349.082L398.862 324.462L409.178 317.209L428.133 344.169Z" fill="#FFB6B6"/>
<path d="M433.506 351.287L412.013 366.399L411.822 366.127C410.262 363.908 409.647 361.161 410.113 358.489C410.579 355.817 412.087 353.439 414.305 351.879L414.306 351.879L416.137 346.14L425.557 343.968L427.433 342.649L433.506 351.287Z" fill="#2F2E41"/>
<path d="M402.288 195.929L402.998 197.445C407.665 207.415 408.858 218.559 407.044 229.416C406.909 229.84 406.935 230.299 407.117 230.705C408.241 232.024 406.477 237.755 405.465 240.955L404.554 246.614C404.554 246.614 406.065 251.87 403.769 251.483C401.473 251.097 404.892 256.703 402.702 258.108L397.021 293.376L420.724 332.443L411.945 345.172L376.829 299.96L376.39 259.138L371.123 292.059L370.684 343.856L354.712 342.158L348.861 291.941L354.442 222.492L363.221 192.381L402.288 195.929Z" fill="#2F2E41"/>
<path d="M303.376 183.872C304.204 182.947 305.36 182.382 306.598 182.297C307.837 182.212 309.059 182.614 310.006 183.416C310.196 183.583 310.372 183.764 310.532 183.959L326.184 178.361L331.819 185.304L309.548 190.655C308.688 191.255 307.652 191.554 306.604 191.504C305.556 191.454 304.554 191.059 303.754 190.379C303.302 189.988 302.932 189.512 302.665 188.979C302.397 188.445 302.238 187.863 302.195 187.268C302.152 186.672 302.227 186.074 302.415 185.507C302.604 184.941 302.902 184.417 303.293 183.965C303.32 183.934 303.348 183.902 303.376 183.872Z" fill="#FFB6B6"/>
<path d="M391.315 105.512L378.394 106.128L372.215 116.802L363.436 119.435L355.974 137.871L360.551 195.342C360.551 195.342 361.469 198.819 359.779 198.311C358.09 197.804 358.779 202.16 358.779 202.16L352.553 226.106L409.158 221.184L406.015 195.813C406.015 195.813 410.385 195.954 407.312 192.881C404.239 189.809 402.745 190.788 405.697 187.155C408.648 183.522 409.087 180.889 409.087 180.889L410.404 162.892L412.575 137.564C412.92 133.545 412.26 129.503 410.655 125.802C409.05 122.102 406.55 118.858 403.381 116.363L391.315 105.512Z" fill="#3066BE"/>
<path d="M421.81 230.968C422.504 229.939 422.769 228.68 422.548 227.459C422.328 226.237 421.64 225.15 420.63 224.428C420.422 224.285 420.203 224.159 419.975 224.051L421.575 207.505L413.465 203.74L413.723 226.642C413.352 227.624 413.315 228.701 413.62 229.705C413.925 230.709 414.553 231.584 415.407 232.194C415.897 232.536 416.449 232.778 417.032 232.907C417.615 233.036 418.218 233.048 418.806 232.944C419.394 232.84 419.956 232.621 420.459 232.3C420.962 231.978 421.398 231.561 421.74 231.072C421.764 231.038 421.787 231.003 421.81 230.968Z" fill="#FFB6B6"/>
<path d="M409.572 123.539C409.572 123.539 428.178 167.862 427.616 184.883L421.463 216.262L412.849 215.647L413.465 187.344C416.608 184.131 403.454 165.982 399.118 153.21L409.572 123.539Z" fill="#3066BE"/>
<path d="M364.314 118.996C364.314 118.996 341.216 161.056 332.271 173.426L325.48 178.73V187.344L341.269 187.692C341.269 187.692 364.753 168.159 363.875 158.502C362.997 148.845 364.314 118.996 364.314 118.996Z" fill="#3066BE"/>
<path d="M384.615 102.549C393.664 102.549 401 95.2123 401 86.1627C401 77.113 393.664 69.7769 384.615 69.7769C375.565 69.7769 368.229 77.113 368.229 86.1627C368.229 95.2123 375.565 102.549 384.615 102.549Z" fill="#FFB6B6"/>
<path d="M390.946 101.205C386.244 101.051 385.817 99.8092 381.115 99.6549C379.618 99.6058 377.851 99.4006 377.127 98.089C376.611 97.1549 376.849 95.9786 377.302 95.013C377.839 94.0914 378.323 93.1401 378.751 92.1635C379.009 91.3977 379.077 90.5805 378.948 89.7827C378.82 88.9848 378.499 88.2303 378.013 87.5842C377.528 86.9382 376.892 86.4201 376.161 86.0747C375.431 85.7294 374.627 85.5671 373.82 85.602C372.389 85.6639 371.045 86.3367 369.618 86.4597C367.661 86.6284 363.333 80.1669 364.235 78.4215C365.112 76.7225 366.877 75.4406 367.154 73.5489C367.335 72.3115 366.825 71.0821 366.755 69.8336C366.651 67.9822 371.344 72.1566 370.485 70.5136C368.377 66.4832 388.244 61.4866 391.514 66.535C392.737 68.4218 394.915 68.2931 396.857 69.4262C398.13 70.1689 401.343 72.7311 402.074 74.3281C402.745 75.9576 403.062 77.7112 403.005 79.4726C403.034 87.6646 401.786 95.1999 395.178 100.042" fill="#2F2E41"/>
<path d="M314.37 365.385C309.927 365.777 305.452 365.171 301.273 363.612C297.094 362.053 293.316 359.58 290.215 356.374C286.16 352.099 283.377 346.596 280.686 341.275C279.902 339.726 279.093 338.124 278.269 336.59C277.35 334.916 276.954 333.006 277.131 331.106C277.307 329.205 278.049 327.401 279.26 325.926C280.421 324.451 281.997 323.358 283.785 322.786C285.573 322.215 287.49 322.192 289.291 322.721L289.684 322.834L293.218 336.625C293.746 334.568 294.877 329.934 295.592 325.393L295.652 325.012L296.004 325.169C299.694 326.802 303.164 328.893 306.332 331.393C311.944 335.894 316.508 341.564 319.708 348.007C322.907 354.451 324.665 361.514 324.859 368.705L324.869 369.134L314.37 365.385Z" fill="#FFF8EB"/>
<path d="M449.267 370.056L277.76 370.245C277.565 370.245 277.379 370.167 277.241 370.03C277.104 369.893 277.027 369.706 277.027 369.512C277.027 369.318 277.104 369.131 277.241 368.994C277.379 368.857 277.565 368.779 277.76 368.779L449.267 368.59C449.364 368.59 449.459 368.609 449.548 368.645C449.638 368.682 449.719 368.736 449.787 368.804C449.855 368.872 449.909 368.953 449.946 369.042C449.983 369.131 450.002 369.227 450.002 369.323C450.002 369.419 449.983 369.515 449.946 369.604C449.909 369.693 449.855 369.774 449.787 369.842C449.719 369.91 449.638 369.964 449.548 370C449.459 370.037 449.364 370.056 449.267 370.056Z" fill="#CACACA"/>
</g>
<defs>
<clipPath id="clip0_359_3489">
<rect width="450" height="370.245" fill="white"/>
</clipPath>
</defs>
</svg>
