<svg width="70" height="70" viewBox="0 0 70 70" fill="none" xmlns="http://www.w3.org/2000/svg">
<path d="M32.0195 27.7747C32.5386 27.4317 33.0225 27.109 33.4618 26.8432C34.5078 26.2111 34.8442 24.8501 34.2099 23.8044C33.5793 22.7583 32.2178 22.4245 31.1725 23.0552C30.6845 23.3495 30.1466 23.7057 29.5723 24.0858C27.7148 25.3174 24.8894 27.234 23.304 26.7859C22.1451 26.4584 22.0053 25.6601 21.6239 25.0816C20.803 23.5668 19.0589 22.5613 17.4829 22.5942C17.4829 22.5942 16.0773 22.5942 14.3648 23.2679C6.64845 26.0198 6.62786 27.8454 6.62882 28.7383C6.6299 29.5525 6.64664 30.3393 8.93085 31.6677H5.84069L5.83334 57.3979H25.1051L26.3844 45.622C26.3844 45.622 19.9942 45.1513 16.8117 44.6904C12.9882 44.1368 12.3196 40.6121 12.3196 40.6121L10.3298 32.4067C11.4701 32.9621 12.9505 33.5991 14.9049 34.3525C15.1666 34.453 15.435 34.5008 15.6996 34.5008C16.5887 34.5008 17.4264 33.9614 17.7657 33.0833C18.2049 31.9421 17.6361 30.6605 16.4955 30.2217C15.2925 29.7582 13.9461 29.1902 12.8311 28.6771C13.022 28.5891 13.2317 28.4985 13.4385 28.4072L16.5295 29.6351C18.3953 30.3556 18.9165 31.865 18.3648 33.2994C17.953 34.3694 16.7098 35.7019 14.5282 34.8404C13.8546 34.5746 13.248 34.3384 12.6733 34.1014L13.6333 40.3388C13.9067 42.1142 14.9966 43.0335 16.885 43.5423C17.7972 43.9232 27.684 44.6735 27.684 44.6735C27.3511 48.5468 26.6731 54.9023 26.5915 55.6454C26.3698 57.1903 27.37 58.6702 28.9166 59.019C29.1401 59.0686 29.3638 59.0925 29.5821 59.0925C30.9628 59.0925 32.2078 58.1387 32.5235 56.7358C32.6563 56.1444 33.8162 42.3087 33.8272 42.1708C33.8969 41.332 33.5765 40.4174 33.0087 39.7969C32.28 39 31.6267 38.2956 23.8626 38.0326L22.8077 31.1842C23.1235 31.2316 23.4394 31.2631 23.7559 31.2631C26.7594 31.2633 29.749 29.2808 32.0195 27.7747Z" fill="#FFF8EB"/>
<path d="M16.5619 22.309C19.7102 22.309 22.2625 19.7567 22.2625 16.6083C22.2625 13.4599 19.7102 10.9077 16.5619 10.9077C13.4135 10.9077 10.8612 13.4599 10.8612 16.6083C10.8612 19.7567 13.4135 22.309 16.5619 22.309Z" fill="#FFF8EB" stroke="#FFF8EB" stroke-width="1.37599"/>
<path d="M64.1602 31.6677H61.0698C63.354 30.3393 63.3708 29.5525 63.3718 28.7383C63.3728 27.8454 63.3523 26.0198 55.6358 23.2679C53.9231 22.5942 52.5178 22.5942 52.5178 22.5942C50.9417 22.5613 49.1977 23.5668 48.3768 25.0816C47.9952 25.6601 47.8556 26.4585 46.6968 26.7859C45.1112 27.2341 42.2857 25.3174 40.4284 24.0858C39.854 23.7058 39.3162 23.3495 38.828 23.0552C37.7829 22.4244 36.4214 22.7583 35.7907 23.8044C35.1562 24.8501 35.4927 26.2111 36.5388 26.8432C36.978 27.109 37.4622 27.4317 37.9811 27.7747C40.2515 29.2808 43.2411 31.2633 46.2446 31.2633C46.5611 31.2633 46.8771 31.2317 47.1928 31.1843L46.138 38.0327C38.374 38.2959 37.7207 39.0001 36.9918 39.797C36.4239 40.4176 36.1036 41.3321 36.1734 42.1709C36.1844 42.3088 37.3443 56.1446 37.477 56.736C37.7928 58.1389 39.0378 59.0927 40.4186 59.0927C40.6369 59.0927 40.8604 59.0687 41.0839 59.0191C42.6304 58.6704 43.6307 57.1905 43.4092 55.6455C43.3273 54.9024 42.6492 48.5469 42.3167 44.6737C42.3167 44.6737 52.2035 43.9233 53.1156 43.5424C55.004 43.0335 56.0937 42.1143 56.3673 40.3389L57.3272 34.1015C56.7526 34.3385 56.1457 34.5746 55.4723 34.8406C53.2907 35.7019 52.0476 34.3694 51.6357 33.2996C51.0839 31.8651 51.6052 30.3557 53.471 29.6352L56.5619 28.4073C56.7689 28.4987 56.9785 28.5891 57.1694 28.6772C56.0546 29.1903 54.7083 29.7583 53.5051 30.2218C52.3644 30.6607 51.7956 31.9422 52.2348 33.0835C52.5741 33.9615 53.4118 34.5009 54.3008 34.5009C54.5653 34.5009 54.8341 34.4531 55.0957 34.3526C57.05 33.5994 58.5304 32.9623 59.6707 32.4068L57.6809 40.6122C57.6809 40.6122 57.0123 44.1369 53.1888 44.6905C50.0063 45.1514 43.6162 45.6222 43.6162 45.6222L44.8954 57.398H64.1672L64.1602 31.6677Z" fill="#FFF8EB"/>
<path d="M53.439 22.309C56.5874 22.309 59.1397 19.7567 59.1397 16.6083C59.1397 13.4599 56.5874 10.9077 53.439 10.9077C50.2906 10.9077 47.7383 13.4599 47.7383 16.6083C47.7383 19.7567 50.2906 22.309 53.439 22.309Z" fill="#FFF8EB" stroke="#FFF8EB" stroke-width="1.37599"/>
</svg>
