<svg width="404" height="453" viewBox="0 0 404 453" fill="none" xmlns="http://www.w3.org/2000/svg">
<g clip-path="url(#clip0_359_3370)">
<path d="M374.797 58.4088C358.668 58.4088 345.594 45.3335 345.594 29.2044C345.594 13.0752 358.668 0 374.797 0C390.925 0 404 13.0752 404 29.2044C404 45.3335 390.925 58.4088 374.797 58.4088Z" fill="#FFF8EB"/>
<path d="M382.816 18.246C380.539 18.246 378.693 16.4 378.693 14.1228C378.693 11.8456 380.539 9.99963 382.816 9.99963C385.093 9.99963 386.939 11.8456 386.939 14.1228C386.939 16.4 385.093 18.246 382.816 18.246Z" fill="#2F2E41"/>
<path d="M376.219 33.914C370.451 33.914 365.774 29.2374 365.774 23.4686C365.774 17.6998 370.451 13.0233 376.219 13.0233C381.988 13.0233 386.664 17.6998 386.664 23.4686C386.664 29.2374 381.988 33.914 376.219 33.914Z" fill="#2F2E41"/>
<path d="M375.355 33.9114C370.667 33.9114 366.867 30.1112 366.867 25.4234C366.867 20.7356 370.667 16.9354 375.355 16.9354C380.043 16.9354 383.843 20.7356 383.843 25.4234C383.843 30.1112 380.043 33.9114 375.355 33.9114Z" fill="#9E616A"/>
<path d="M369.591 16.771C371.078 15.8642 372.782 15.3737 374.524 15.3508C376.265 15.3278 377.981 15.7732 379.492 16.6404C381.003 17.5077 382.253 18.7648 383.111 20.2805C383.97 21.7962 384.405 23.5147 384.372 25.2564C380.048 26.3423 375.504 27.1733 370.892 25.5161L369.803 22.8503L369.16 25.5181C367.756 26.0922 366.348 26.578 364.939 25.5126C364.882 23.7758 365.281 22.0544 366.098 20.5204C366.914 18.9864 368.118 17.6935 369.591 16.771Z" fill="#2F2E41"/>
<path d="M386.655 2.92994C388.102 2.31207 389.694 2.11162 391.25 2.35126C392.805 2.5909 394.263 3.26108 395.457 4.28598C396.625 5.34011 397.515 6.66686 398.046 8.14803C398.577 9.62919 398.733 11.2187 398.501 12.7751C398.034 15.9405 396.109 18.6664 394.336 21.3295C392.562 23.9926 390.829 26.9107 390.831 30.1105C390.832 32.4151 391.748 34.6251 393.376 36.2559C395.005 37.8866 397.213 38.805 399.518 38.8096C396.813 39.974 393.99 41.1613 391.049 41.0233C388.107 40.8852 385.024 38.9941 384.544 36.0886C384.198 33.9951 385.225 31.9536 386.082 30.0123C387.477 26.8491 388.486 23.529 389.086 20.1241C389.475 18.5128 389.455 16.8297 389.028 15.2279C388.606 14.0699 387.824 13.0781 386.795 12.3988C385.767 11.7195 384.548 11.3886 383.317 11.455L382.345 10.5805C382.179 9.01544 382.504 7.4374 383.277 6.06612C384.049 4.69483 385.23 3.59856 386.655 2.92994Z" fill="#2F2E41"/>
<path d="M352.824 48.7443C357.883 54.5014 365.003 58.0378 372.647 58.5903C380.291 59.1427 387.846 56.6669 393.681 51.6972L391.176 44.7076C390.61 43.4662 389.717 42.4022 388.592 41.6299C387.467 40.8575 386.154 40.4059 384.792 40.3234L383.198 40.2255L379.398 36.9483C379.398 36.9483 369.16 36.5827 369.312 36.4077L363.111 40.138L363.116 40.1123L360.678 40.2616C359.316 40.3437 358.002 40.7952 356.877 41.5676C355.753 42.34 354.859 43.4042 354.294 44.6458L352.824 48.7443Z" fill="#3066BE"/>
<path d="M345.594 145.566C345.604 151.342 347.327 156.986 350.544 161.783C353.761 166.58 358.329 170.315 363.669 172.516C369.009 174.717 374.882 175.285 380.545 174.148C386.208 173.011 391.406 170.22 395.483 166.129C399.56 162.037 402.332 156.828 403.449 151.161C404.566 145.494 403.977 139.623 401.757 134.291C399.537 128.958 395.786 124.404 390.978 121.203C386.17 118.003 380.521 116.3 374.745 116.31C370.907 116.307 367.107 117.062 363.562 118.533C360.017 120.003 356.797 122.16 354.088 124.878C351.379 127.597 349.234 130.824 347.776 134.375C346.319 137.925 345.577 141.728 345.594 145.566Z" fill="#FFF8EB"/>
<path d="M388.332 136.014C387.125 132.166 384.379 128.636 380.581 127.335C376.783 126.034 371.222 128.016 368.367 130.862C363.144 136.067 361.87 153.948 365.458 159.599C366.172 159.561 368.634 159.533 369.357 159.506L370.379 156.1V159.473C371.529 159.437 372.689 159.413 373.858 159.399C377.777 159.351 381.524 157.784 384.312 155.03C387.1 152.276 388.712 148.548 388.808 144.63C388.902 140.881 388.808 137.531 388.332 136.014Z" fill="#2F2E41"/>
<path d="M375.23 148.769C370.633 148.769 366.907 145.043 366.907 140.446C366.907 135.85 370.633 132.123 375.23 132.123C379.826 132.123 383.553 135.85 383.553 140.446C383.553 145.043 379.826 148.769 375.23 148.769Z" fill="#FFB6B6"/>
<path d="M382.413 133.137L372.83 128.338C370.871 129.221 369.183 130.612 367.943 132.367C366.703 134.122 365.954 136.176 365.775 138.318L365.537 141.179L369.549 140.157L369.989 136.499L370.67 139.872L372.522 139.401L372.505 133.721L374.358 139.397L380.972 137.877L382.413 133.137Z" fill="#2F2E41"/>
<path d="M353.126 164.841C358.185 170.598 365.306 174.134 372.95 174.687C380.594 175.239 388.149 172.763 393.983 167.794L391.478 160.804C390.912 159.563 390.019 158.499 388.894 157.726C387.77 156.954 386.456 156.502 385.094 156.42L383.501 156.322L379.701 153.045C379.701 153.045 369.463 152.679 369.615 152.504L363.413 156.235L363.418 156.209L360.98 156.358C359.618 156.44 358.305 156.892 357.18 157.664C356.055 158.437 355.162 159.501 354.596 160.742L353.126 164.841Z" fill="#3066BE"/>
<path d="M374.797 290.816C358.668 290.816 345.594 277.74 345.594 261.611C345.594 245.482 358.668 232.407 374.797 232.407C390.925 232.407 404 245.482 404 261.611C404 277.74 390.925 290.816 374.797 290.816Z" fill="#FFF8EB"/>
<path d="M375.603 265.229C370.454 265.229 366.281 261.055 366.281 255.907C366.281 250.758 370.454 246.584 375.603 246.584C380.751 246.584 384.925 250.758 384.925 255.907C384.925 261.055 380.751 265.229 375.603 265.229Z" fill="#FFB6B6"/>
<path d="M352.888 281.151C357.947 286.908 365.068 290.445 372.712 290.997C380.356 291.549 387.911 289.074 393.745 284.104L391.24 277.114C390.674 275.873 389.781 274.809 388.656 274.037C387.532 273.264 386.218 272.813 384.856 272.73L383.263 272.632L379.463 269.355C379.463 269.355 369.225 268.989 369.377 268.814L363.175 272.545L363.18 272.519L360.742 272.668C359.38 272.75 358.066 273.202 356.942 273.974C355.817 274.747 354.924 275.811 354.358 277.053L352.888 281.151Z" fill="#3066BE"/>
<path d="M365.771 250.125C366.559 247.305 368.349 244.87 370.804 243.277C372.762 242.025 375.204 241.386 377.421 242.048C379.638 242.71 381.474 244.886 381.329 247.237C381.739 247.129 382.172 247.138 382.578 247.263C382.984 247.389 383.346 247.625 383.625 247.946C384.181 248.603 384.568 249.386 384.751 250.227C385.463 252.863 385.416 255.646 384.615 258.256L384.659 258.631C384.124 258.489 383.628 258.226 383.21 257.862C382.792 257.499 382.463 257.045 382.247 256.535C381.737 255.546 381.443 254.449 380.89 253.484C380.651 252.985 380.291 252.554 379.843 252.23C379.395 251.906 378.872 251.699 378.323 251.629L378.42 253.304C377.477 252.818 376.535 252.332 375.592 251.847L376.265 253.456L373.796 252.424C373.888 252.939 373.98 253.455 374.072 253.971C373.856 253.523 373.551 253.124 373.177 252.797C372.802 252.471 372.366 252.223 371.893 252.07C371.42 251.918 370.921 251.862 370.426 251.908C369.931 251.953 369.451 252.099 369.014 252.335C368.029 252.997 367.32 253.996 367.018 255.143C366.719 256.288 366.559 257.464 366.54 258.647C365.268 255.991 364.995 252.966 365.771 250.125Z" fill="#2F2E41"/>
<path d="M337.279 79.1086H401.497C401.826 79.1092 402.152 79.0448 402.456 78.9193C402.76 78.7938 403.036 78.6096 403.269 78.3772C403.502 78.1448 403.687 77.8688 403.813 77.565C403.939 77.2611 404.003 76.9354 404.003 76.6065C404.003 76.2776 403.939 75.9519 403.813 75.648C403.687 75.3442 403.502 75.0682 403.269 74.8358C403.036 74.6034 402.76 74.4192 402.456 74.2937C402.152 74.1682 401.826 74.1038 401.497 74.1044H337.279C334.052 74.0593 334.02 79.1541 337.279 79.1086Z" fill="#FFF8EB"/>
<path d="M250.769 92.1973H401.497C402.161 92.1973 402.797 91.9336 403.267 91.4644C403.736 90.9952 403.999 90.3587 403.999 89.6951C403.999 89.0315 403.736 88.3951 403.267 87.9258C402.797 87.4566 402.161 87.193 401.497 87.193H250.769C247.542 87.1479 247.51 92.2427 250.769 92.1973Z" fill="#FFF8EB"/>
<path d="M198.26 99.2351C189.377 99.2351 182.176 92.0339 182.176 83.1508C182.176 74.2677 189.377 67.0665 198.26 67.0665C207.142 67.0665 214.343 74.2677 214.343 83.1508C214.343 92.0339 207.142 99.2351 198.26 99.2351Z" fill="#3066BE"/>
<path d="M196.065 91.522C195.787 91.522 195.513 91.4573 195.265 91.333C195.016 91.2088 194.8 91.0284 194.634 90.8061L190.246 84.9553C189.961 84.5757 189.839 84.0986 189.906 83.6288C189.973 83.1591 190.224 82.7353 190.604 82.4506C190.983 82.1659 191.46 82.0437 191.93 82.1108C192.4 82.1779 192.824 82.4289 193.108 82.8085L195.979 86.6359L203.352 75.5761C203.482 75.3805 203.65 75.2124 203.845 75.0815C204.04 74.9506 204.259 74.8595 204.49 74.8133C204.72 74.7671 204.958 74.7668 205.188 74.8124C205.419 74.858 205.638 74.9485 205.834 75.0789C206.029 75.2093 206.197 75.377 206.328 75.5723C206.459 75.7676 206.55 75.9868 206.596 76.2173C206.642 76.4478 206.642 76.6851 206.596 76.9157C206.551 77.1463 206.46 77.3656 206.329 77.5611L197.554 90.7252C197.395 90.9632 197.181 91.1598 196.931 91.2983C196.681 91.4368 196.401 91.5133 196.115 91.5214C196.098 91.5217 196.081 91.522 196.065 91.522Z" fill="white"/>
<path d="M337.279 195.312H401.497C402.161 195.312 402.797 195.048 403.267 194.579C403.736 194.11 403.999 193.473 403.999 192.81C403.999 192.146 403.736 191.51 403.267 191.041C402.797 190.571 402.161 190.308 401.497 190.308H337.279C334.052 190.263 334.02 195.357 337.279 195.312Z" fill="#FFF8EB"/>
<path d="M250.769 208.401H401.497C401.826 208.401 402.152 208.337 402.456 208.211C402.76 208.086 403.036 207.902 403.269 207.669C403.502 207.437 403.687 207.161 403.813 206.857C403.939 206.553 404.003 206.227 404.003 205.898C404.003 205.57 403.939 205.244 403.813 204.94C403.687 204.636 403.502 204.36 403.269 204.128C403.036 203.895 402.76 203.711 402.456 203.586C402.152 203.46 401.826 203.396 401.497 203.396H250.769C247.542 203.351 247.51 208.446 250.769 208.401Z" fill="#FFF8EB"/>
<path d="M198.26 215.438C189.377 215.438 182.176 208.237 182.176 199.354C182.176 190.471 189.377 183.27 198.26 183.27C207.142 183.27 214.343 190.471 214.343 199.354C214.343 208.237 207.142 215.438 198.26 215.438Z" fill="#3066BE"/>
<path d="M196.066 207.725C195.788 207.725 195.514 207.661 195.266 207.536C195.018 207.412 194.802 207.232 194.635 207.009L190.247 201.159C190.106 200.971 190.004 200.757 189.945 200.529C189.887 200.302 189.874 200.065 189.907 199.832C189.941 199.6 190.019 199.376 190.139 199.174C190.259 198.971 190.417 198.795 190.605 198.654C190.793 198.513 191.007 198.41 191.234 198.352C191.462 198.294 191.699 198.281 191.932 198.314C192.164 198.347 192.388 198.426 192.59 198.546C192.792 198.665 192.969 198.824 193.11 199.012L195.98 202.839L203.353 191.78C203.617 191.385 204.026 191.111 204.491 191.018C204.956 190.926 205.439 191.021 205.834 191.284C206.228 191.547 206.502 191.956 206.596 192.421C206.689 192.887 206.593 193.37 206.331 193.764L197.555 206.929C197.396 207.167 197.183 207.363 196.932 207.502C196.682 207.64 196.402 207.717 196.116 207.725C196.099 207.725 196.083 207.725 196.066 207.725Z" fill="white"/>
<path d="M337.279 311.515H401.497C402.161 311.515 402.797 311.252 403.267 310.782C403.736 310.313 403.999 309.677 403.999 309.013C403.999 308.35 403.736 307.713 403.267 307.244C402.797 306.775 402.161 306.511 401.497 306.511H337.279C334.052 306.466 334.02 311.561 337.279 311.515Z" fill="#FFF8EB"/>
<path d="M250.769 324.604H401.497C402.161 324.604 402.797 324.34 403.267 323.871C403.736 323.402 403.999 322.765 403.999 322.102C403.999 321.438 403.736 320.802 403.267 320.333C402.797 319.863 402.161 319.6 401.497 319.6H250.769C247.542 319.555 247.51 324.649 250.769 324.604Z" fill="#FFF8EB"/>
<path d="M198.26 331.642C189.377 331.642 182.176 324.441 182.176 315.558C182.176 306.674 189.377 299.473 198.26 299.473C207.142 299.473 214.343 306.674 214.343 315.558C214.343 324.441 207.142 331.642 198.26 331.642Z" fill="#3066BE"/>
<path d="M196.065 323.929C195.787 323.929 195.513 323.864 195.265 323.74C195.016 323.615 194.8 323.435 194.634 323.213L190.246 317.362C190.105 317.174 190.002 316.96 189.944 316.733C189.886 316.505 189.873 316.268 189.906 316.036C189.939 315.803 190.018 315.579 190.138 315.377C190.257 315.175 190.416 314.998 190.604 314.857C190.792 314.716 191.006 314.614 191.233 314.555C191.461 314.497 191.698 314.484 191.93 314.517C192.163 314.551 192.387 314.629 192.589 314.749C192.791 314.869 192.967 315.027 193.108 315.215L195.979 319.043L203.352 307.983C203.482 307.787 203.65 307.619 203.845 307.488C204.04 307.357 204.259 307.266 204.49 307.22C204.72 307.174 204.958 307.174 205.188 307.219C205.419 307.265 205.638 307.355 205.834 307.486C206.029 307.616 206.197 307.784 206.328 307.979C206.459 308.174 206.55 308.394 206.596 308.624C206.642 308.855 206.642 309.092 206.596 309.322C206.551 309.553 206.46 309.772 206.329 309.968L197.554 323.132C197.395 323.37 197.181 323.566 196.931 323.705C196.681 323.844 196.401 323.92 196.115 323.928C196.098 323.928 196.081 323.929 196.065 323.929Z" fill="white"/>
<path d="M132.668 260.318H90.5242L100.898 229.843L129.427 230.492L132.668 260.318Z" fill="#9E616A"/>
<path d="M98.658 435.939H106.976L110.933 403.854L98.6567 403.855L98.658 435.939Z" fill="#9E616A"/>
<path d="M94.1834 451.733H100.086L101.139 446.161L103.837 451.733H119.491C120.242 451.733 120.972 451.493 121.577 451.049C122.181 450.604 122.628 449.978 122.851 449.261C123.074 448.545 123.063 447.776 122.818 447.067C122.573 446.357 122.108 445.745 121.491 445.318L108.99 436.684V431.051L95.8413 431.836L94.1834 451.733Z" fill="#2F2E41"/>
<path d="M112.922 435.939H121.24L125.197 403.854L112.921 403.855L112.922 435.939Z" fill="#9E616A"/>
<path d="M108.448 451.733H114.35L115.403 446.161L118.102 451.733H133.756C134.506 451.733 135.237 451.493 135.841 451.049C136.445 450.604 136.892 449.978 137.115 449.261C137.338 448.545 137.327 447.776 137.082 447.067C136.838 446.357 136.373 445.745 135.755 445.318L123.254 436.684V431.051L110.106 431.836L108.448 451.733Z" fill="#2F2E41"/>
<path d="M132.544 254.482L90.5241 253.834C90.5241 253.834 76.4045 283.593 82.0978 301.978L98.59 355.967L112.146 425.265L124.616 421.481L128.109 416.227L125.536 406.856L126.599 401.61L130.723 353.687V353.039L132.668 332.939C141.424 303.019 139.094 284.961 132.544 254.482Z" fill="#E5E7EB"/>
<path d="M103.009 352.747L95.2852 408.71L97.0079 411.395L95.2852 415.809L97.4067 426.271L109.704 428.658L121.361 378.633L103.009 352.747Z" fill="#E5E7EB"/>
<path d="M131.413 245.792C131.423 245.792 131.432 245.792 131.443 245.792C131.79 245.794 132.129 245.684 132.409 245.478C132.69 245.273 132.897 244.983 133 244.651C135.035 238.219 137.232 230.323 136.139 229.23C135.664 228.822 135.108 228.519 134.508 228.339C133.2 227.843 132.167 227.451 132.976 225.023C133.555 223.287 131.744 221.361 132.656 220.183C133.819 218.681 133.545 217.242 132.656 216.293C131.82 215.401 134.227 211.265 132.884 207.025C132.841 206.89 132.828 206.747 132.846 206.607C132.864 206.467 132.912 206.332 132.987 206.212C134.672 203.51 139.585 197.428 133.597 191.486C128.096 186.028 125.743 175.361 124.175 174.58C123.95 174.468 123.778 174.273 123.693 174.037L121.617 168.347C121.501 168.033 121.292 167.761 121.017 167.569C120.743 167.377 120.416 167.273 120.081 167.273H103.984C103.739 167.272 103.496 167.327 103.275 167.433C103.054 167.539 102.86 167.694 102.707 167.886L95.1277 177.361C95.0331 177.478 94.9557 177.608 94.8978 177.747C93.8945 180.144 85.2222 201.4 89.5902 209.513L90.3921 210.999C94.2456 218.136 95.8409 221.09 94.1852 222.746C92.6596 224.272 93.3101 225.402 93.6986 226.078C93.8192 226.287 93.9556 226.524 93.9319 226.63C93.4846 228.645 94.6183 228.937 95.1628 229.077C95.1998 229.086 95.2425 229.098 95.2822 229.109C95.147 229.289 94.997 229.458 94.8335 229.614C94.6391 229.774 94.4806 229.973 94.3687 230.198C94.2568 230.424 94.1939 230.671 94.1842 230.922C94.235 231.203 94.3444 231.469 94.5054 231.704C94.6663 231.94 94.8751 232.138 95.1182 232.287C95.3683 232.496 95.6519 232.733 95.6576 232.892C95.6608 232.985 95.5519 233.105 95.4867 233.167C95.2055 233.437 94.8212 233.748 94.4144 234.077C93.2364 235.031 91.901 236.112 91.8465 237.148C91.8375 237.329 91.868 237.509 91.936 237.677C92.004 237.844 92.1077 237.995 92.2401 238.118L95.2698 241.146C95.4882 241.53 94.4872 243.903 94.0364 244.436L93.8277 244.683L93.9794 244.812C93.847 245.028 93.7687 245.274 93.7513 245.527C93.7339 245.78 93.7778 246.034 93.8793 246.266C94.0029 246.53 94.2006 246.751 94.4483 246.904C94.6959 247.057 94.9827 247.134 95.2736 247.126L131.413 245.792Z" fill="#FFEECF"/>
<path d="M184.199 201.664C182.961 202.939 181.27 203.676 179.493 203.716C177.716 203.756 175.995 203.095 174.7 201.878C174.414 201.608 174.153 201.313 173.92 200.997L151.087 207.918L154.59 196.15L175.736 191.382C177.249 190.432 179.074 190.116 180.819 190.501C182.563 190.887 184.085 191.943 185.057 193.443C185.868 194.707 186.225 196.209 186.069 197.703C185.913 199.198 185.254 200.594 184.199 201.664Z" fill="#9E616A"/>
<path d="M169.865 204.119L166.497 192.783L154.887 192.719L152.495 195.894L148.637 194.511L136.379 197.632L123.429 176.706C122.778 175.655 121.903 174.76 120.867 174.085C119.831 173.41 118.659 172.972 117.434 172.802C116.209 172.633 114.962 172.735 113.781 173.102C112.601 173.47 111.515 174.093 110.603 174.927C109.187 176.212 108.254 177.942 107.959 179.831C107.664 181.719 108.024 183.652 108.981 185.307L127.161 217.083L169.865 204.119Z" fill="#FFEECF"/>
<path d="M153.34 255.816C151.564 255.877 149.835 255.236 148.526 254.034C147.218 252.831 146.434 251.162 146.344 249.386C146.326 248.994 146.342 248.601 146.392 248.211L125.136 237.375L135.818 231.32L154.365 242.538C156.114 242.902 157.65 243.94 158.64 245.426C159.63 246.913 159.995 248.73 159.656 250.484C159.365 251.958 158.581 253.288 157.433 254.257C156.285 255.226 154.842 255.776 153.34 255.816Z" fill="#9E616A"/>
<path d="M141.306 247.65L146.734 237.145L138.41 229.052L134.485 229.683L132.662 226.012L121.663 219.765L126.83 195.705C127.09 194.496 127.079 193.244 126.8 192.04C126.521 190.835 125.979 189.707 125.214 188.736C124.449 187.764 123.479 186.974 122.373 186.42C121.268 185.867 120.053 185.564 118.817 185.533C116.907 185.477 115.035 186.078 113.513 187.235C111.991 188.392 110.912 190.035 110.454 191.891L101.537 227.398L141.306 247.65Z" fill="#FFEECF"/>
<path d="M111.23 164.258C102.694 164.258 95.7739 157.338 95.7739 148.802C95.7739 140.265 102.694 133.345 111.23 133.345C119.766 133.345 126.685 140.265 126.685 148.802C126.685 157.338 119.766 164.258 111.23 164.258Z" fill="#9E616A"/>
<path d="M108.897 129.991L107.022 130.49L106.385 130.659L99.2491 132.559C92.9239 134.242 89.3318 141.376 91.2259 148.492C87.7287 154.555 90.7592 160.178 96.2665 165.634C103.327 164.665 110.488 164.673 117.546 165.659L117.423 161.574L120.547 166.166C122.331 166.511 124.12 166.931 125.915 167.426C121.836 159.392 118.828 151.094 118.316 144.162L121.584 143.292L120.632 139.716L122.693 142.997L128.617 141.42C128.073 139.375 127.131 137.457 125.845 135.775C124.56 134.094 122.955 132.682 121.124 131.621C119.293 130.56 117.271 129.869 115.173 129.59C113.075 129.31 110.942 129.446 108.897 129.991Z" fill="#2F2E41"/>
<path d="M95.7252 139.544C91.7054 139.544 88.4467 136.285 88.4467 132.265C88.4467 128.245 91.7054 124.986 95.7252 124.986C99.745 124.986 103.004 128.245 103.004 132.265C103.004 136.285 99.745 139.544 95.7252 139.544Z" fill="#2F2E41"/>
<path d="M20.5846 450.283C15.4171 438.178 11.7732 425.002 13.4979 411.963C14.089 407.541 15.3757 403.241 17.3103 399.222C18.8688 395.945 20.8812 392.905 23.2883 390.19C24.1205 389.232 25.2625 388.597 26.5151 388.396C27.7676 388.194 29.0511 388.439 30.1416 389.087C30.3102 389.185 30.4788 389.288 30.6344 389.399C31.4785 389.993 32.1442 390.807 32.56 391.752C32.6405 391.933 32.7076 392.119 32.761 392.31C32.9991 393.106 33.0633 393.944 32.9491 394.767C32.0401 401.478 32.2372 408.292 33.5326 414.939C33.8632 416.631 34.2674 418.309 34.7451 419.971C35.8177 418.632 36.9581 417.348 38.162 416.126C41.283 412.963 44.8822 410.311 48.8277 408.267H48.8342C48.8536 408.254 48.8666 408.248 48.886 408.235C53.671 405.797 60.051 406.808 63.7791 408.468C64.0255 408.572 64.2589 408.689 64.4859 408.799C66.431 409.797 67.397 410.945 66.5671 411.697C66.3791 411.859 66.1911 412.028 66.016 412.196C60.3641 417.422 55.7338 423.653 52.3613 430.572V430.579C51.0209 433.333 49.8916 436.186 48.9833 439.111C47.7319 443.151 46.6945 447.631 44.2502 450.925C44.0002 451.272 43.7296 451.603 43.4397 451.917L21.6025 451.742C21.5506 451.716 21.5053 451.697 21.4534 451.671L20.5846 451.703C20.617 451.548 20.6559 451.392 20.6948 451.237V451.224C20.7142 451.139 20.7402 451.049 20.7596 450.971C20.7791 450.906 20.7921 450.847 20.805 450.796C20.7661 450.698 20.7272 450.608 20.6818 450.51C20.6495 450.432 20.617 450.361 20.5846 450.283Z" fill="#FFF8EB"/>
<path d="M62.4824 409.583C62.4954 409.609 62.5084 409.629 62.5213 409.655C62.8786 410.311 63.3776 410.88 63.9821 411.32C64.5866 411.759 65.2814 412.059 66.0161 412.196C66.1911 412.028 66.3791 411.859 66.5672 411.697C66.5378 411.679 66.5044 411.668 66.4699 411.665C65.7638 411.587 65.0862 411.342 64.4932 410.951C63.9002 410.56 63.4088 410.033 63.0595 409.415C63.0271 409.363 62.9946 409.305 62.9687 409.253C62.9471 409.221 62.9194 409.193 62.8871 409.172C62.8549 409.15 62.8187 409.136 62.7807 409.129C62.7427 409.121 62.7037 409.122 62.6658 409.13C62.628 409.138 62.5921 409.153 62.5602 409.175C62.4979 409.22 62.4552 409.288 62.4408 409.364C62.4264 409.44 62.4412 409.518 62.4824 409.583Z" fill="white"/>
<path d="M0.772003 453H226.398C226.499 453 226.6 452.98 226.694 452.942C226.788 452.903 226.873 452.846 226.945 452.775C227.017 452.703 227.074 452.618 227.113 452.524C227.152 452.43 227.172 452.33 227.172 452.228C227.172 452.126 227.152 452.026 227.113 451.932C227.074 451.838 227.017 451.753 226.945 451.681C226.873 451.61 226.788 451.553 226.694 451.514C226.6 451.475 226.499 451.456 226.398 451.456H0.772003C0.670425 451.456 0.569794 451.475 0.475876 451.514C0.381943 451.553 0.296585 451.61 0.224655 451.681C0.152725 451.753 0.0956879 451.838 0.0567474 451.932C0.017807 452.026 -0.0022583 452.126 -0.0022583 452.228C-0.0022583 452.33 0.017807 452.43 0.0567474 452.524C0.0956879 452.618 0.152725 452.703 0.224655 452.775C0.296585 452.846 0.381943 452.903 0.475876 452.942C0.569794 452.98 0.670425 453 0.772003 453Z" fill="#CCCCCC"/>
</g>
<defs>
<clipPath id="clip0_359_3370">
<rect width="404" height="453" fill="white" transform="matrix(-1 0 0 1 404 0)"/>
</clipPath>
</defs>
</svg>
